<?xml version="1.0" encoding="utf-8"?>
<!-- Generator: Adobe Illustrator 19.0.0, SVG Export Plug-In . SVG Version: 6.00 Build 0)  -->
<svg version="1.1" id="Layer_1" xmlns="http://www.w3.org/2000/svg" xmlns:xlink="http://www.w3.org/1999/xlink" x="0px" y="0px"
	 viewBox="0 0 512 512" style="enable-background:new 0 0 512 512;" xml:space="preserve">
<style type="text/css">
	.st0{fill:#636262;}
	.st1{fill:#3F3D3D;}
	.st2{fill:#5B5A5A;}
	.st3{fill:#212121;}
	.st4{fill:#474747;}
	.st5{fill:#686868;}
	.st6{fill:#3A3939;}
	.st7{fill:#A8A5A5;}
</style>
<g>
	<g>
		<g>
			<path id="XMLID_12_" class="st0" d="M225.2,452.9c0,0,24.1-2,29.4-17.1c5.3-15.1-55.4-64-71.6-121.2s6.2-141.4,19.8-172.7
				c13.6-31.3,38.2-45.9,0-85.5c0,0,94.6-24.6,120.5-5.1c25.9,19.4-77.7,6.6-8.6,140.4c0,0,53.4,11.8,63.4,12.9s74.9,7,54.9-39.7
				c0,0,37.2-6.7,37.2,58s-24,91.4-24,91.4s5.6-26.6-4.1-33.1c-9.7-6.5-38.9-6.5-55-3.2c-16.2,3.2-70.2,38.9-70.2,38.9
				s-20.5,87.4,2.2,109c22.7,21.6,51.4-7.1,51.4-7.1S321.4,483.3,225.2,452.9z"/>
			<path id="XMLID_11_" class="st1" d="M225.2,452.9c0,0,35.7,2.2,41-19.7c3.8-15.6-52.4-64.6-68.6-121.8s3.8-135.6,17.4-166.9
				c13.6-31.3,38.2-51.4,0-91.1c0,0,67.9-21.5,93.8-2.1c25.9,19.4-74,6.2-5,140c0,0,63.2,23.1,73.2,24.2s83.6,6,55.8-50.7
				c0,0,37.2-6.7,37.2,58s-24,91.4-24,91.4s8.2-36.2-1.5-42.7c-9.7-6.5-41.3-6.3-57.5-3.1c-16.2,3.2-78.2,46-78.2,46
				s-21.1,94.2,1.5,115.8s60-11.6,60-11.6S321.4,483.3,225.2,452.9z"/>
		</g>
		<g>
			<path id="XMLID_14_" class="st2" d="M255.4,9.7c135.9,0,246.1,110.2,246.1,246.1S391.3,501.9,255.4,501.9S9.3,391.7,9.3,255.8
				S119.5,9.7,255.4,9.7z M56,255.8c0,110.1,89.3,199.4,199.4,199.4s199.4-89.3,199.4-199.4S365.5,56.3,255.4,56.3
				S56,145.6,56,255.8z"/>
			<path id="XMLID_13_" class="st3" d="M255.4,21.2c129.6,0,234.6,105,234.6,234.6s-105,234.6-234.6,234.6S20.8,385.3,20.8,255.8
				S125.8,21.2,255.4,21.2z M56.8,255.8c0,109.6,88.9,198.5,198.5,198.5s198.5-88.9,198.5-198.5S365,57.2,255.4,57.2
				S56.8,146.1,56.8,255.8z"/>
		</g>
	</g>
	<g>
		<g>
			<path id="XMLID_6_" class="st3" d="M161.9,263.9c1.1,41.2,29.6,110.9,51.1,115.5c0,0,52,0,78.4-20.5
				c26.4-20.5,61.1-69.7,96.4-71.2c23.4-1,19.7-83.3-0.9-91.8c0,0-23.7-0.5-42.6-9.2c-18.9-8.6-45.9-40.5-66.4-49.7
				c-20.5-9.2-57.7-23.7-81-8.6C197,128.4,159.8,186.1,161.9,263.9z"/>
			<path id="XMLID_5_" class="st4" d="M161.8,267.9c1.9,35.6,22.6,94.3,42.8,100.8c0,0,49.5-1.7,72.3-19.4s54.1-50.7,72.5-64.6
				c0,0,32.7-43.6,10.8-65.9c-6.3-6.5-25.1-14.1-41.4-21.5s-35.9-31.7-53.6-39.7c-17.7-7.9-59.2-21.5-79.2-8.4
				C186.1,149.2,157.7,190.7,161.8,267.9z"/>
			<path id="XMLID_4_" class="st5" d="M171.5,252.4c-6,42.7,23.6,98.2,33.6,106.9s49.1-3.4,63.8-12.9c14.7-9.5,24.1-21.5,16.4-30.2
				c-7.8-8.6-40.9,7.9-65.7-22.8S176.7,215.3,171.5,252.4z"/>
		</g>
		<g>
			<ellipse id="XMLID_3_" class="st3" cx="255.4" cy="252.4" rx="40.4" ry="46.3"/>
			<ellipse id="XMLID_2_" class="st6" cx="255.4" cy="252.4" rx="35.8" ry="41"/>
			<ellipse id="XMLID_1_" class="st7" cx="247.3" cy="262.9" rx="21.6" ry="24.7"/>
		</g>
	</g>
</g>
</svg>
