<?xml version="1.0" encoding="utf-8"?>
<!-- Generator: Adobe Illustrator 19.0.0, SVG Export Plug-In . SVG Version: 6.00 Build 0)  -->
<svg version="1.1" id="Layer_1" xmlns="http://www.w3.org/2000/svg" xmlns:xlink="http://www.w3.org/1999/xlink" x="0px" y="0px"
	 viewBox="545 -370.9 1190.6 841.9" style="enable-background:new 545 -370.9 1190.6 841.9;" xml:space="preserve">
<style type="text/css">
	.st0{fill:#010101;}
	.st1{fill:#747374;}
	.st2{fill:#DADAD9;}
	.st3{fill:#B4B4B5;}
	.st4{fill:#222222;}
	.st5{fill:#A7A7A7;}
	.st6{fill:#E7E7E6;}
	.st7{fill:#B4B4B4;}
	.st8{fill:#363534;}
	.st9{fill:#323030;}
	.st10{fill:#FEFEFE;}
	.st11{fill:#313030;}
	.st12{fill:#31302F;}
	.st13{fill:#323131;}
	.st14{fill:#302F2F;}
	.st15{fill:#353434;}
	.st16{fill:#F5F4F4;}
	.st17{fill:#363434;}
	.st18{fill:#312F2F;}
	.st19{fill:#373636;}
	.st20{fill:#ADACAC;}
	.st21{fill:#030202;}
	.st22{fill:#020202;}
	.st23{fill:#0C0C0C;}
	.st24{fill:#FCFCFC;}
	.st25{fill:#A19F9F;}
	.st26{fill:#232222;}
	.st27{fill:#9BD7F5;}
	.st28{fill:#E0E0DF;}
	.st29{fill:#323130;}
	.st30{fill:#343332;}
	.st31{fill:#FFFFFF;}
	.st32{fill:#040403;}
	.st33{fill:#030303;}
	.st34{fill:#FDFDFD;}
	.st35{fill:#F1F1F1;}
	.st36{fill:#AAAAAA;}
	.st37{fill:url(#SVGID_1_);}
	.st38{fill:url(#SVGID_2_);stroke:url(#SVGID_3_);stroke-width:7;stroke-miterlimit:10;}
	.st39{fill:#F7931E;}
	.st40{fill:none;stroke:#F7931E;stroke-width:2;stroke-miterlimit:10;}
	.st41{font-family:'MyriadPro-Regular';}
	.st42{font-size:9px;}
</style>
<g id="Calque_2">
</g>
<path class="st0" d="M556.9-27.2c3.9-1.1,7.7-2.7,11.5-4.1c41.6-15.3,83.2-30.7,124.9-46c38.3-14.1,76.6-28.3,114.9-42.4
	c8.8-3.3,17.7-6.5,26.6-9.8c0.4-0.2,0.9-0.4,1.4-0.6c-0.8-0.8-1.7-0.6-2.4-0.6c-7.4-0.5-14.8-1.1-22.3-1.4
	c-7.5-0.3-14.8-1.6-22.1-2.9c-22.3-4.1-44.7-8.1-67-12.2c-7.2-1.3-14.3-2.6-21.5-3.9c-1.1-0.2-2-0.6-2.8-1.3
	c-2.3-2.1-4.6-4.2-6.9-6.3c-0.9-0.8-1.4-1.7-1.6-2.9c-1.2-5.5-2.5-10.9-3.8-16.4c-0.2-1-0.3-2.1-0.2-3.1c0.2-7.8,0.5-15.7,0.7-23.5
	c0-1,0.2-2.1,0.4-3.1c1.9-7.5,3.8-15,5.6-22.6c0.7-2.6,0.8-2.7,3.5-3c15.4-1.7,30.8-3.4,46.3-5.1c12-1.3,24-2.6,36-3.9
	c0.9-0.1,1.9-0.1,2.9,0c11,1.3,22.1,2.6,33.1,4c1.2,0.1,2.4,0.4,3.5,0.8c9.2,3,18.4,6,27.6,9c1.2,0.4,2.3,1,3.3,1.9
	c4.3,3.4,8.6,6.9,12.1,11.2c1.1,1.3,1.7,2.5,1.6,4.3c-0.3,6.2-0.4,12.5-0.6,18.7c0,1.6-0.4,3.4,1.4,4.4c0.2,1.6,1.1,3.1,0.8,4.9
	c-1.2,7.8-2.3,15.7-3.5,23.5c-0.5,3.1-0.5,3.1-3.6,3.8c-13.3,3-26.7,6.1-40,9c-3,0.7-5.6,2.3-8.3,3.6c-3.2,1.5-3.2,1.6-3.4,5.1
	c-0.2,3.1-0.2,3.1,3,3.3c9.4,0.6,18.8,1.2,28.3,1.8c1.1,0.1,2.3-0.1,2.9,1.2c0.3,0.6,0.8,0.3,1.2,0.1c6.4-2.3,12.7-4.7,19.1-7
	c0.8-0.3,1.3-0.8,1.5-1.7c0.3-1.3,0.4-2.9,1.1-3.9c0.7-1,2.1-1.5,3.2-2.3c15.4-12.2,30.9-24.4,46.3-36.6c1.3-1.1,2.8-1.8,4.4-2.4
	c11.5-3.8,22.9-7.6,34.4-11.5c3.6-1.2,7.2-1.2,10.9-1.6c12.9-1.4,25.8-2.5,38.7-3.9c1.9-0.2,3.9-0.6,5.7-1.5
	c0.9-0.4,1.7-0.3,2.6-0.3c24-0.3,48-0.5,72-0.8c15.4-0.2,30.9-0.4,46.3-0.5c5.2,0,10.4,0.2,15.6,0.4c30,1,60,1.9,89.9,2.9
	c33.1,1.1,66.2,2.2,99.3,3.2c13.1,0.4,26.2,0.9,39.3,1.2c6.7,0.2,13.2,1.2,19.8,1.9c13.1,1.5,26.2,3.1,39.3,4.6
	c12.9,1.5,25.9,3.1,38.8,4.6c14.2,1.7,28.4,3.3,42.7,5c14.1,1.7,28.3,3.3,42.4,5c12.9,1.5,25.7,3,38.6,4.6c14.2,1.7,28.4,3.3,42.7,5
	c12.8,1.5,25.6,3.1,38.4,4.5c1.6,0.2,3,0.6,4.2,1.6c0.4,0.3,1,0.6,1.4,0.9c1.5,1.4,2.9,1.3,4.7,0.4c10.3-4.8,20.7-9.3,31-14
	c1.1-0.5,2.3-0.7,3.4-1.1c1.1-0.4,1.6,0,1.8,1.2c0.1,0.6,0,1.3,0,1.9c0,9.3,0,18.6,0,27.8c0,1-0.3,2,1.3,2.2
	c0.9,0.1,0.9,1.3,0.1,1.9c-0.4,0.3-1,0.5-1.5,0.8c-1.6,0.7-3.2,1.4-4.8,2c-0.1,1,0.4,1.6,0.8,2.3c4.3,8.7,8.6,17.3,13,26
	c0.5,1.1,0.9,2.2,1,3.4c0.5,14.1,1.1,28.3,1.7,42.4c0.3,7.2-0.3,14.4-0.6,21.6c-0.7,19.1-1.5,38.2-2.3,57.3
	c-0.2,5.4-0.5,10.9-0.7,16.3c-0.1,1.9-0.1,1.9-2.1,2.3c-0.7,0.2-1.3,0.7-1.9,1c-15.2,10-30.3,20-45.4,30c-2.4,1.6-5,2.8-7.6,4.1
	c-30.9,14.8-61.7,29.5-92.6,44.3c-3,1.4-6.1,2.9-9.1,4.4c-1.2,0.6-2.5,0.9-3.9,1c-17,0.6-34.1,1.2-51.1,1.8
	c-9.4,0.3-18.7,0.7-28.1,1c-0.6,0-1.3-0.1-1.9,0.3c-0.1,0.9,0.5,1.7,0.8,2.4c10.3,24.2,21.8,47.9,33,71.7
	c7.6,16.3,15.3,32.5,23,48.8c0.4,0.9,0.7,2,1.9,2.3c0.6,0.2,0.7,1,0.9,1.6c0.8,2.8,1.6,5.5,2.3,8.3c0.6,2.2,0.1,2.8-2.1,2.9
	c-4,0.2-8,0.4-12,0.6c-1.5,0-2.8,0.9-4,0.9c-1.3,0-2.7-0.5-4.2-0.5c-14.7,0.8-29.4,1.5-44.1,2.3c-15.1,0.8-30.2,1.5-45.3,2.2
	c-20.1,1-40.1,2.1-60.2,3c-8.6,0.4-17.2,1.3-25.8,1.8c-1.2,0.1-2.6,0.6-3.1-1.3c-0.2-0.7-0.8-0.1-1.2,0c-2.4,0.9-4.8,1.9-7.1,2.8
	c-4.8,1.9-9.7,3.8-14.5,5.7c-0.3,0.1-0.6,0.2-0.9,0.3c-1.4,0.4-1.9,0.2-2.2-1.3c-0.3-1.9-0.5-3.8-0.7-5.7c-1.9-16-3.8-32.1-5.7-48.1
	c-2-16.9-4-33.8-6-50.8c-1.6-13.8-3.3-27.6-4.9-41.5c-0.7-0.1-0.7,0.5-0.8,0.9c-1.4,4.6-2.8,9.2-4.2,13.8c-0.3,1-0.4,2-0.4,3.1
	c-0.3,21-0.6,42.1-0.9,63.1c-0.1,4.3-0.9,8.6-1.3,12.9c-0.4,4.2-0.9,8.4-1.4,12.6c-0.3,2.5-0.3,2.6-2.7,3.3
	c-17.8,5.1-35.6,10.3-53.5,15.4c-1.3,0.4-2.5,0.4-3.8,0.2c-29.1-4.8-58.2-9.6-87.3-14.4c-24.9-4.1-49.7-8.1-74.6-12.2
	c-12-2-24-3.9-36-6c-1.5-0.3-2.3,0.2-3.1,1.4c-22,34.3-44.1,68.6-66.2,102.9c-0.4,0.6-0.8,1.2-1.2,1.8c-0.4,0.5-1,0.6-1.5,0.2
	c-0.5-0.3-0.7-0.9-0.4-1.5c0.3-0.6,0.6-1.1,0.9-1.7c19.2-29.9,38.4-59.7,57.6-89.6c3-4.6,6-9.3,9-14c-0.8-0.7-1.7-0.6-2.5-0.7
	c-23.9-3.9-47.8-7.9-71.7-11.8c-1.2-0.2-2.3-0.6-3.4-1c-22.7-10-45.5-20-68.3-30.1c-1.5-0.6-3-1.2-3.6-3.1c-1.4,1.3-2.5,2.3-3.5,3.4
	c-34.4,33.2-68.8,66.5-103.2,99.7c-0.3,0.3-0.6,0.6-0.9,0.8c-0.6,0.6-1.4,1-2.1,0.2c-0.7-0.8-0.2-1.5,0.4-2.1
	c0.4-0.4,0.8-0.8,1.2-1.2c16.8-16.2,33.6-32.5,50.4-48.7c17.9-17.3,35.8-34.6,53.7-51.8c0.3-0.3,0.7-0.7,1-1
	c1.2-1.3,1.3-1.8,0.4-3.4c-2.6-4.3-5.3-8.6-7.9-12.9c-2.6-4.2-5.2-8.5-7.8-12.6c-0.7-1.1-1-2.3-1-3.6c0-11.7-0.1-23.4,0.1-35
	c0.1-5.1,0.8-10.2,1.2-15.3c0.5-6.6,1.4-13.2,1.6-19.8c0-0.6,0-1.1,0-1.6c-0.9-0.4-1.3,0.3-1.7,0.6c-8.1,6.2-16.3,12.4-24.3,18.8
	c-2,1.6-3.5,3.7-5.4,5.3C776,145.8,719,195.6,661.9,245.3c-8,6.9-15.9,13.8-23.9,20.8c-1.5,1.3-2.9,1.8-4.9,1.6
	c-21.6-2.7-43.2-5.3-64.8-7.9c-3.8-0.5-7.6-0.9-11.4-1.4c0-2.7,0-5.4,0-8.2c1.6,0.4,1.3,1.9,1.4,2.9c0.2,1.8,1,2.5,2.7,2.7
	c21,2.4,41.9,5,62.8,7.6c2.6,0.3,5.2,0.5,7.9,1c2.1,0.3,3.9-0.2,5.5-1.6c6.5-5.9,13.2-11.6,19.9-17.4c8.1-7.1,16.2-14.1,24.2-21.1
	c8.1-7.1,16.3-14.2,24.4-21.3c9.3-8.2,18.7-16.3,28-24.4c8.2-7.1,16.4-14.3,24.6-21.4c7.9-6.9,15.8-13.8,23.7-20.6
	c8.3-7.2,16.6-14.5,24.9-21.7c7.9-6.9,16.1-13.4,23.6-20.7c9.9-9.5,21.3-17.1,31.9-25.7c1.9-1.5,1.8-2.1,0.1-3.8
	c-2.6-2.6-5.7-4.3-9.3-5.1c-8.1-1.8-15.8-4.5-22.9-8.9c-1.3-0.8-2.2-0.3-3.3,0.4c-8.4,5-16.9,10.1-25.3,15.2
	c-6.5,3.9-12.9,7.7-19.4,11.6c-6.9,4.2-13.1,9.4-19.5,14.3c-3.3,2.6-6.7,3.8-11,3.7c-9.8-0.3-19.7-0.2-29.5-0.1
	c-7.8,0.1-15.4-1.6-23.1-2.7c-11-1.4-22-3.1-33-4.7c-1.9-0.3-3.4,0.2-5,1.2c-6.5,4.3-13.1,8.4-19.6,12.6
	c-20.9,13.4-41.9,26.8-62.9,40.2c-6.2,4-12.4,7.9-18.6,11.9c-0.9,0.6-1.8,1.7-3.2,0.9c0-0.8,0-1.6,0-2.4c2.8-2.7,6.3-4.4,9.5-6.5
	c15.1-9.7,30.2-19.3,45.3-29c14.2-9,28.3-18.1,42.5-27.1c2.1-1.3,4.6-2.4,5.5-5.1c0.2-0.7,1-1.1,1.5-1.5c17-12.5,34-25,51-37.6
	c30.1-22.4,60.9-43.9,90.6-66.7c13-10,27-18.6,40.8-27.4c13.9-8.9,28.1-17.2,41.2-27.3c1.5-1.2,1.6-1.2,1.7-3.1
	c-0.6-0.4-1,0.1-1.5,0.4c-21.6,13.6-43.3,27-64.9,40.5c-11.7,7.3-23.4,14.5-35,21.9c-7.9,5-15.4,10.6-23.1,16
	c-15.9,11.1-31.7,22.3-47.5,33.4c-17.2,12-34.3,24.1-51.4,36.2c-2.6,1.8-5.3,3.4-7.1,6.3c-1.3,2-3.8,3.1-5.9,4.5
	c-26,18.5-52,37-77.9,55.6c-4,2.9-8.1,5.4-12.7,7.1c-0.8,0.3-1.6,0.8-2.5,0.4c0-0.8,0-1.6,0-2.4c1.2-1.4,3-1.8,4.6-2.5
	c2.2-0.9,4.1-2.1,6-3.5c25.8-18.3,51.4-36.7,77.2-55.1c1.5-1.1,3-2.1,4.5-3.1c1.9-1.3,3.7-2.7,5-4.7c0.7-1.2,2-1.9,3.1-2.6
	C692.1,45.3,726.9,21,761.5-3.6c20.5-14.6,42-27.5,63.3-40.9C844.9-57,864.9-69.6,885.1-82c0.2-0.1,0.4-0.3,0.6-0.4
	c1-0.6,2.1-1.4,3.3-0.7c1.3,0.7,1.3,2,1.1,3.2c-0.6,3.9,0,7.9-0.5,11.7c-0.6,5-0.4,10.1-0.7,15.1c-0.3,5.8-0.6,11.6-0.7,17.5
	c-0.2,7.1-0.5,14.2-0.9,21.3c-0.1,1.9-1.2,3.2-2.6,4.3c-7.8,6.4-15.5,12.9-23.3,19.2c-4,3.2-6.9,7.3-10.3,11
	c-7,7.7-12.7,16.2-18.1,25c-1,1.7-0.7,2.4,0.9,3.3c6.3,3.6,13,5.8,20,7.4c4.4,1,8,3,11.2,6.1c2.6,2.6,2.7,2.4,5.5,0.2
	c19.1-14.8,38.2-29.5,57.4-44.3c4.5-3.5,9-7,13.5-10.4c1.8-1.4,2.8-3.2,3.5-5.3c4.3-12.8,8.8-25.6,12.7-38.5
	c2.8-9.3,7-17.8,11.9-26.1c1.5-2.5,2.8-5,4.2-7.5c0.9-1.6,2.2-2.6,4.1-3c4.1-0.9,8.1-1.8,12.2-2.8c1.4-0.3,2.8-0.3,4.3,0.1
	c2.3,0.6,4.7,1.1,7,1.8c9.3,2.9,19,3.8,28.6,4.9c10.2,1.2,20.3,2.4,30.5,3.6c14.5,1.7,28.9,3.4,43.3,5.1c15.7,1.9,31.4,3.7,47.2,5.6
	c18.4,2.2,36.8,4.4,55.3,6.5c10,1.2,20,2.4,30,3.5c5.7,0.7,11.5,0.7,17.2,1.1c10,0.8,19.9,0,29.9-0.9c1.6-0.1,3.1-0.7,4.5-1.5
	c9.5-5.3,19-10.6,28.4-16c4.7-2.7,10-3.7,15.1-5.5c3.9-1.4,8-2.3,11.8-3.9c1.8-0.7,3.6-0.6,5.4-0.4c5.3,0.5,10.7,0.5,16,0.9
	c8.3,0.5,16.6,0.6,24.9,1.3c3.6,0.3,7.2-0.1,10.8,0.5c0.9,0.1,1.9,0,2-1.2c0.1-1.3-1.1-1.1-1.9-1.2c-0.2,0-0.3,0-0.5,0
	c-11.6,0.3-23.2-0.5-34.8-0.6c-8.1-0.1-16.1-0.3-24.2-0.4c-6.5-0.1-12.9,0.8-19.4,1.1c-1.5,0.1-2.9,0.7-4.4,1.3
	c-15.5,6.2-31,12.4-46.6,18.6c-2,0.8-4.1,1.2-6.3,1.2c-7.2,0-14.4,0.1-21.6-0.1c-7-0.2-13.8-1.4-20.7-2.1
	c-12.3-1.3-24.6-2.7-36.9-4.1c-9.3-1-18.6-2.1-27.9-3.1c-11-1.2-22.1-2.4-33.1-3.6c-12.3-1.4-24.6-2.8-36.9-4.1
	c-12.6-1.4-25.1-2.9-37.7-4.1c-18.2-1.8-36.2-4.6-54.1-7.7c-27.6-4.8-55.4-8.3-83.1-12.4c-2.7-0.4-5.3-1-8.1-0.9
	c-1.9,0.1-2.8-1.3-2.1-3.1c1.1-2.5,1.9-5.1,2.3-7.8c1.2-7.3,5.4-12.8,10.2-18c4.9-5.4,10.6-10,16-14.8c1.2-1.1,2.6-1.8,4-2.6
	c4.3-2.2,8.8-4.2,13-6.7c2.3-1.3,4.9-1.6,7.4-2c12.2-2.2,24.4-4.3,36.7-6c4.1-0.6,7.8-2.5,11.6-3.9c8.9-3.3,17.8-6.7,26.7-10.1
	c2.2-0.8,4.5-1.2,6.7-1.6c9-1.8,18.1-3.4,27.2-4.8c4.6-0.8,9.2-0.9,13.8-1c5.3-0.2,10.6,0,15.8-0.1c14.7-0.1,29.4,0.3,44.1-0.5
	c10.9-0.5,21.7,0.6,32.5,2c15.4,2,30.8,3.9,46.2,5.5c17.8,1.9,35.3,5.1,52.8,8.3c8.8,1.6,17.6,3.6,26.5,4.5
	c7.1,0.8,14.2,0.9,21.2,1.8c4.3,0.5,8.2-0.4,12.3-1.4c12.9-3.2,25.8-6.3,38.7-9.2c5.2-1.2,10.7-0.5,16-0.3c0.8,0,1.6,0.3,2.4,0.2
	c7.8-0.3,15.5,0.4,23.2,0.6c10.1,0.2,20.3,0.6,30.4,1c9.2,0.3,18.4,0.6,27.5,0.9c8.1,0.3,16.1,0.7,24.1,1.6c8.7,1,17.3,1.9,26,2.5
	c7.8,0.6,15.5,2.2,23.2,3.2c17.2,2.2,34.4,4.4,51.6,6.6c11.8,1.5,23.7,2.7,35.4,4.6c9.5,1.5,18.9,4.1,28.4,6.2
	c8.5,1.9,17,3.8,25.9,5.9c-4.1-3.6-8.1-6.8-11.9-10.1c-2.6-2.2-5.3-4.3-7.8-6.7c-1.9-1.8-3.9-2.5-6.5-2.4c-6.8,0.1-13.6,0-20.4,0.1
	c-8.8,0.1-17.5-1.6-26.2-2.7c-18.8-2.3-37.6-4.7-56.4-7c-19-2.3-37.9-4.6-56.9-6.9c-7.8-0.9-15.6-1.5-23.4-2.2
	c-7.6-0.7-15.3-1.5-22.9-2.1c-8-0.7-15.9-1.5-23.9-2.2c-7.7-0.7-15.4-1.4-23.2-2.2c-8-0.7-15.9-1.4-23.9-2.2
	c-6.6-0.6-13.2-1.3-19.8-1.8c-0.6,0-1.1-0.2-1.7-0.1c-7.5,0.3-15-0.4-22.5-0.5c-12-0.2-24-0.7-35.9-1c-10-0.3-20-0.6-29.9-0.9
	c-10.8-0.4-21.6-0.6-32.3-1c-10.5-0.3-20.9-0.6-31.4-0.9c-11.5-0.3-23-0.6-34.5-1c-10.4-0.3-20.8-0.6-31.1-0.9
	c-11.7-0.3-23.3-0.4-35-1.1c-8.9-0.5-17.5,0.8-26.3,1.3c-6.5,0.4-12.9,1.2-19.3,1.6c-3.2,0.2-6.1,1.1-9.1,2
	c-7.7,2.5-15.4,4.9-23.1,7.3c-7.9,2.5-15,6.7-22.2,10.7c-3.1,1.8-6.3,3.5-9.4,5.2c-1.7,1-3.6,1.2-5.5,1.5
	c-10.5,1.4-20.9,3.1-31.3,4.5c-2.7,0.4-5.2,1.1-7.6,2.7c-9.1,5.9-18.2,11.6-27.3,17.5c-2.4,1.6-4.9,2.2-7.7,1.5
	c-5.3-1.1-10.7-1.9-16-3c-1.5-0.3-2.8-0.1-4.2,0.5c-22.9,10.1-45.9,20-68.8,30C805.8-94,785.1-85,764.3-76
	c-31.7,13.8-63.4,27.6-95.1,41.3C642.6-23,615.9-11.4,589.2,0.2c-9.3,4-18.6,8.1-27.9,12.1c-1.3,0.6-2.6,1.7-4.3,0.7
	c0-0.8,0-1.6,0-2.4c2.1-1.7,4.6-2.5,7-3.5c34.1-14.8,68.2-29.7,102.3-44.5c30.2-13.1,60.3-26.2,90.4-39.3
	c29.5-12.8,59-25.6,88.5-38.5c14.8-6.4,29.6-12.9,44.9-19.6c-2.5-0.6-4.6-0.9-6.6-1.4c-2.5-0.7-2.8-1.6-1.1-3.4
	c7.7-8.3,14.5-17.5,21.8-26.2c3.1-3.7,6-7.5,9.1-11.2c1.3-1.6,2.9-2.7,4.8-3.4c10.4-3.7,20.9-7.1,31.3-10.9
	c3.6-1.4,7.4-1.4,11.1-1.7c3.8-0.3,7.7-0.4,11.5-0.5c9.3-0.2,18.7-0.8,28-1.2c6.5-0.3,13.2,0.4,19.5-1.9c0.4-0.1,0.8-0.2,1.2-0.1
	c9.3,1.6,18.7,0.4,28,0.7c6.5,0.2,13-0.2,19.4,0.1c18.2,0.8,36.3-0.1,54.5,0.5c16.2,0.6,32.5-0.1,48.7,0.4
	c18.3,0.6,36.6-0.1,54.9,0.5c16.9,0.6,33.8-0.2,50.6,0.5c17,0.6,33.9,0,50.9,0.5c6.6,0.2,13.2,1,19.8,1.6c6.7,0.6,13.4,1.1,20.1,1.7
	c8.8,0.8,17.7,1.5,26.5,2.2c6.7,0.6,13.4,1.1,20.1,1.6c8.8,0.7,17.7,1.5,26.5,2.2c6.6,0.5,13.2,1.1,19.8,1.6
	c8.6,0.7,17.2,1.3,25.8,2.2c28.7,3,56.9,8.6,85.4,12.9c28.6,4.3,57.2,9,85.8,13.5c3.7,0.6,7.2,0.7,10.8-0.8c2.7-1.1,5.6-1.7,8.5-2.8
	c-1.1-1.5-2.6-1.9-4.1-2.1c-7.8-1-15.6-1.9-23.3-2.8c-17.1-2-34.3-4.1-51.5-6.1c-18.4-2.1-36.8-4.3-55.3-6.5
	c-15.5-1.8-31-3.7-46.4-5.5c-17.2-2-34.3-4-51.5-6c-15.4-1.8-30.8-3.6-46.2-5.5c-13.3-1.6-26.6-3.1-40.1-3.2
	c-10.4-0.1-20.8-0.6-31.1-0.9c-9.6-0.3-19.2-0.6-28.7-0.9c-10.3-0.3-20.6-0.6-30.9-1c-9.7-0.3-19.3-0.6-29-0.9
	c-10.5-0.4-20.9-0.6-31.4-1c-9.6-0.3-19.2-0.6-28.7-0.9c-10.4-0.3-20.8-0.5-31.1-1c-6.3-0.3-12.6,0-18.9-0.7
	c-4.8-0.6-9.7,0.5-14.6,0.4c-9-0.1-18.1-0.3-27.1,0c-15.4,0.6-30.7,0-46,0.5c-10.3,0.4-20.6,0.2-30.9,0.3c-2.3,0-3.9,1.5-6.1,1.7
	c-10.6,1-21.2,2.1-31.7,3.1c-5.4,0.5-10.8,1.1-16.2,1.6c-1.8,0.2-3.4,0.7-5.1,1.2c-10.1,3.4-20.2,6.8-30.3,10
	c-3.8,1.2-6.9,3.2-10,5.6c-14.3,11.4-28.7,22.7-43.1,34c-1.2,1-2.4,1.9-2.8,3.5c-0.6,3-2.6,4.4-5.3,5.3c-8.2,2.9-16.4,6-24.6,9
	c-30.8,11.4-61.5,22.7-92.3,34.1c-37,13.6-74,27.3-111,40.9c-22.8,8.4-45.6,16.8-68.4,25.3c-1.9,0.7-3.7,2.1-5.9,1.1
	C556.9-25.6,556.9-26.4,556.9-27.2z"/>
<path class="st1" d="M553.4,13.2c0.9,0.2,1.5-0.3,2.3-0.6c25.5-11.1,51-22.2,76.5-33.3c26.2-11.4,52.4-22.8,78.7-34.2
	C734-65,757.1-75.1,780.3-85.1c26.4-11.5,52.7-22.9,79.1-34.4c11-4.8,22-9.5,33-14.4c1.1-0.5,2-0.6,3.2-0.4
	c5.8,1.1,11.6,2.1,17.4,3.2c2.1,0.4,3.8,0.2,5.7-1c9.8-6.4,19.7-12.6,29.5-18.9c1.4-0.9,2.8-1.4,4.4-1.6c10.4-1.5,20.8-3.1,31.3-4.6
	c0.6-0.1,1.3-0.1,1.9-0.2c2.6-0.3,5.1-1.1,7.4-2.5c7.1-4.1,14.4-8,21.6-12c0.3-0.2,0.6-0.5,0.8-0.5c2.8,0.3,4.7-2,7.2-2.5
	c2.6-0.5,5.2-1.6,7.8-2.4c2.5-0.8,5-1.6,7.5-2.4c2.4-0.8,4.8-1.4,7.1-2.3c4.5-1.8,9.3-2.3,14-2.7c9-0.7,18-1.6,27-2.3
	c4.7-0.4,9.4-0.8,14.1-0.3c2.9,0.3,5.8,0.1,8.6,0.2c12.7,0.3,25.4,0.7,38.1,1.1c10.9,0.3,21.7,0.6,32.6,0.9c11.3,0.3,22.7,0.6,34,1
	c10.2,0.3,20.5,0.6,30.7,0.9c10.6,0.3,21.1,0.6,31.6,1c10.3,0.3,20.6,0.6,30.9,1c10.5,0.3,20.9,0.5,31.4,1c7,0.3,14.1,0.1,21.1,0.8
	c4.6,0.4,9.2,0.9,13.8,1.3c4.1,0.4,8.3,0.7,12.4,1.1c6.4,0.6,12.7,1.2,19.1,1.8c4.1,0.4,8.1,0.7,12.2,1.1c6.4,0.6,12.7,1.2,19.1,1.8
	c4.1,0.4,8.3,0.7,12.4,1.1c6.3,0.6,12.6,1.2,18.8,1.8c4,0.4,8,0.8,11.9,1.1c7.2,0.6,14.5,1.3,21.7,2.3c5.9,0.8,11.7,1.4,17.6,2.1
	c5.9,0.7,11.9,1.5,17.8,2.2c5.9,0.7,11.7,1.4,17.6,2.1c5.9,0.7,11.9,1.5,17.8,2.2c5.7,0.7,11.4,1.4,17.1,2.1
	c5.6,0.7,11.2,1.5,16.9,2.2c9.9,1.2,19.7,2.9,29.8,2.6c6-0.2,12,0,18-0.1c1.9,0,3.3,0.5,4.8,1.8c7.2,6.2,14.5,12.3,21.8,18.5
	c0.1,0.1,0.2,0.2,0.3,0.5c-0.6,0.4-1.2,0.1-1.8-0.1c-17.3-3.9-34.5-7.9-51.8-11.7c-3.7-0.8-7.6-1.1-11.4-1.6
	c-5.7-0.7-11.4-1.5-17.1-2.2c-5.7-0.7-11.4-1.4-17.1-2.2c-5.6-0.7-11.2-1.4-16.9-2.1c-5.7-0.7-11.4-1.5-17.1-2.2
	c-5.5-0.7-11.2-0.9-16.6-2.2c-7.1-1.7-14.4-1.9-21.5-2.7c-9-1-18.1-1.9-27.2-2.7c-3-0.3-6-0.6-9.1-0.6c-11-0.3-22.1-0.7-33.1-1
	c-9.5-0.3-19-0.6-28.5-0.9c-9.7-0.3-19.3-0.6-29-1c-3.5-0.2-7-0.2-10.5-0.4c-3.3-0.2-6.5,0.2-9.7,1c-14.2,3.5-28.4,6.8-42.6,10.2
	c-1.1,0.3-2.2,0.3-3.3,0.1c-2.3-0.4-4.6-0.4-6.9-0.6c-6.4-0.6-12.9-0.9-19.3-1.6c-4.2-0.5-8.3-1.4-12.5-2.2
	c-11.9-2.2-23.9-4.2-35.8-6.5c-9.5-1.8-19.1-2.7-28.7-3.8c-8.6-1.1-17.3-2.2-25.9-3.2c-7.3-0.9-14.6-1.7-21.9-2.5
	c-4.6-0.5-9.2-1.1-13.8-1.7c-0.9-0.1-1.9-0.2-2.9-0.1c-25.3,0.2-50.6,0.4-75.8,0.6c-5.9,0-11.8,0.9-17.6,1.8
	c-8.3,1.3-16.5,3-24.7,4.5c-2.4,0.4-4.6,1.4-6.8,2.3c-10.3,3.9-20.6,7.7-30.9,11.7c-2.5,1-5.1,1.2-7.7,1.6
	c-12.3,1.7-24.6,3.9-36.8,6.1c-1.3,0.2-2.4,0.7-3.6,1.3c-4,2.1-8,4.3-12.1,6.3c-2.9,1.4-5.3,3.2-7.6,5.3c-2.8,2.5-5.7,4.9-8.4,7.5
	c-1.5,1.4-2.7,2.9-4.1,4.4c-2.3,2.6-4.5,5.2-6.8,7.7c-0.8,0.9-1.3,1.8-1.6,2.9c-1.1,4.2-2.3,8.3-3.5,12.4c-0.3,1.1-0.5,2.1-1.2,3.1
	c-0.7,1.1,0.2,2.6,1.3,2.2c2.1-0.7,4,0,5.9,0.3c10.6,1.4,21.2,3.1,31.8,4.6c8.4,1.2,16.8,2.3,25.1,3.5c8.4,1.3,16.9,2.7,25.3,4
	c9.1,1.5,18.3,3,27.4,4.6c9.3,1.6,18.7,2.4,28,3.4c10.1,1.1,20.2,2.2,30.2,3.4c9.4,1.1,18.7,2.2,28.1,3.2
	c10.8,1.2,21.6,2.3,32.4,3.5c9.4,1,18.9,2.2,28.3,3.2c7.9,0.9,15.9,1.7,23.8,2.6c9.4,1,18.7,2.1,28.1,3.2c7.3,0.8,14.6,1.7,21.9,2.4
	c2.4,0.2,4.8,0.1,7.2,0.1c5.9,0,11.8,0,17.8,0c1.5,0,2.8-0.2,4.2-0.8c16.1-6.4,32.2-12.8,48.3-19.2c1.7-0.7,3.5-1,5.4-1.1
	c5-0.3,10-0.8,15.1-0.9c7.9-0.2,15.8-0.1,23.7,0.3c0.6,0,1.3,0,1.9,0.1c12.2,0.2,24.3,0.5,36.5,0.7c0.3,0,0.6,0,1,0
	c2.2,0.1,2.5,0.6,1.8,2.6c-0.3,0.8-0.8,1.1-1.6,1.1c-1.4-0.1-2.9-0.3-4.3-0.3c-3.7-0.1-7.3-0.3-11-0.5c-8.5-0.5-17.1-0.8-25.6-1.2
	c-4.5-0.2-9.1-0.5-13.6-0.8c-1.5-0.1-2.9,0.2-4.4,0.8c-2.9,1.2-5.9,2-8.9,2.9c-3.4,1.1-6.9,2.1-10.3,3.2c-2.3,0.7-4.5,1.7-6.6,2.9
	c-9.9,5.6-19.9,11.2-29.9,16.8c-0.8,0.4-1.5,0.7-2.5,0.8c-6.1,0.4-12.3,0.9-18.4,1.3c-3.9,0.3-7.8-0.4-11.7-0.5
	c-5.6-0.2-11.2-0.5-16.8-0.9c-4.5-0.4-9-1-13.6-1.6c-4.8-0.6-9.7-1.1-14.5-1.7c-6.2-0.7-12.4-1.5-18.5-2.2c-4.5-0.5-9-1.1-13.6-1.6
	c-6.3-0.7-12.7-1.5-19-2.2c-5.9-0.7-11.7-1.4-17.6-2.1c-6.3-0.8-12.7-1.5-19-2.3c-5.9-0.7-11.9-1.4-17.8-2.1
	c-6.2-0.7-12.4-1.5-18.5-2.2c-5.9-0.7-11.9-1.4-17.8-2.1c-6.3-0.7-12.5-1.5-18.8-2.2c-6.3-0.7-12.7-1.5-19-2.2
	c-10.9-1.1-21.7-2.7-32.2-5.9c-3.5-1-6.8-1.2-10.3-0.2c-3.1,0.9-6.2,1.6-9.3,2.2c-1.6,0.3-2.5,1.1-3.3,2.5c-3,5.5-5.9,11-9.2,16.3
	c-3.6,5.9-5.2,12.5-7.4,18.9c-4.3,12.7-8.5,25.4-12.7,38.2c-0.6,1.8-1.6,3-3,4.2c-24,18.4-47.9,36.9-71.8,55.4
	c-0.9,0.7-1.9,1.4-2.9,2.2c-2-2.7-4.7-4.4-7-6.6c-0.7-0.6-1.5-0.9-2.4-1.1c-2.3-0.7-4.6-1.4-6.9-1.9c-7-1.4-13.3-4.5-19.5-7.8
	c-0.3-0.1-0.6-0.3-0.7-0.8c2.2-3.5,4.6-7,6.8-10.8c4.4-7.6,10.7-13.7,16.1-20.6c4.1-5.2,9.5-9,14.5-13.2c5.6-4.7,11.2-9.3,16.9-13.9
	c1.1-0.9,1.6-2,1.7-3.5c0.3-9.2,0.7-18.4,1.1-27.6c0.3-7.4,0.5-14.9,1-22.3c0.3-4.9,0.2-9.9,0.7-14.9c0.1-1.1,0.6-2.6-0.6-3.4
	c-1.3-0.9-2.2,0.4-3.2,1c-34.3,21.3-68.5,42.7-102.8,64.1c-6.6,4.1-12.8,8.8-19.1,13.3C741.2,9.2,722.1,22.6,703,36.1
	c-16.7,11.8-33.5,23.5-50.2,35.3c-1,0.7-2,1.3-2.2,2.7c-0.2,1-1.1,1.3-1.8,1.8c-10.8,7.7-21.6,15.4-32.4,23.1
	c-17.8,12.7-35.5,25.3-53.3,38c-2.9,2.1-6.2,3.3-9.5,4.4C553.4,98.6,553.4,55.9,553.4,13.2z"/>
<path class="st2" d="M553.4,155.3c1,0.1,1.6-0.6,2.3-1.1c34.1-21.8,68.2-43.5,102.2-65.4c1.4-0.9,2.7-1.2,4.5-1
	c16.8,2.5,33.5,4.8,50.3,7.2c0.9,0.1,1.8,0.1,2.6,0.1c12.1,0,24.2,0,36.2,0c1.8,0,3.2-0.5,4.6-1.6c5.5-4.2,11-8.2,16.5-12.4
	c3-2.3,6.2-4.1,9.4-6c13.6-8.2,27.3-16.4,40.9-24.5c0.6-0.4,1.2-0.7,1.9-1.1c0.4-0.3,0.7-0.2,1.3,0.1c6.4,3.9,13.3,7,20.7,8.6
	c1,0.2,2,0.7,3,0.8c4.2,0.5,7.3,3,10.2,5.8c1.5,1.4,1.5,2.4-0.2,3.7c-9,7-18.1,14-27.2,20.9c-0.6,0.5-1.3,0.8-1.5,1.7
	c-0.2,0.8-1,1.2-1.6,1.7c-15.5,13.6-31.1,27.1-46.7,40.7c-42.7,37.2-85.5,74.5-128.2,111.7c-7.2,6.3-14.4,12.5-21.5,18.8
	c-1,0.9-2,1.3-3.4,1.1c-10-1.3-20-2.5-30-3.7c-12.5-1.5-24.9-3-37.4-4.6c-1.8-0.2-3.7-0.4-5.5-0.7c-2.4-0.3-2.3-0.3-2.6-2.7
	c-0.1-1.2,0-2.4-0.8-3.4C553.4,218.6,553.4,186.9,553.4,155.3z"/>
<path class="st3" d="M553.4-24.7c0.9,0.2,1.6-0.2,2.3-0.5c57.5-21.2,115-42.4,172.5-63.7c42.4-15.6,84.7-31.2,127.1-46.9
	c0.5-0.2,1-0.5,1.6-0.6c1.8-0.4,2.8-1.5,3-3.3c0.2-2,1.3-3.2,2.9-4.5c15.6-12.2,31.1-24.4,46.6-36.7c1.4-1.1,2.9-1.9,4.6-2.5
	c10.8-3.6,21.6-7.1,32.3-10.8c3.9-1.4,8-1.6,12-2c10.7-1.1,21.3-2.1,32-3.2c3.7-0.4,7.5-0.8,11.2-1.2c0.6-0.1,1.7,0.4,1.7-1
	c0-0.4,0.5-0.2,0.8-0.3c0.5,0,1,0,1.4,0c21.5-0.2,43-0.4,64.6-0.7c17-0.2,33.9-0.5,50.9-0.6c12-0.1,24,0.7,36,1
	c6.2,0.2,12.3,0.4,18.5,0.6c23.3,0.7,46.7,1.4,70,2.2c19.9,0.6,39.8,1.3,59.7,1.9c20.1,0.6,40.3,1.3,60.4,1.9
	c7.2,0.2,14.3,1.2,21.5,2c10.3,1.2,20.6,2.4,31,3.6c10.1,1.2,20.2,2.4,30.3,3.6c10.2,1.2,20.5,2.4,30.7,3.6
	c10.2,1.2,20.3,2.4,30.5,3.6c10.2,1.2,20.3,2.4,30.5,3.6c10.2,1.2,20.3,2.4,30.5,3.6c10.3,1.2,20.6,2.4,31,3.6
	c10.2,1.2,20.3,2.4,30.5,3.6c10.2,1.2,20.3,2.4,30.5,3.6c2.6,0.3,5.2,0.7,7.9,0.9c2.1,0.2,3.2,1.8,5,2.6c-0.7,0.9-1.6,0.9-2.3,1.1
	c-3,1-6.1,1.9-9.2,2.8c-2.1,0.6-4.1,1.3-6.5,0.8c-2.4-0.6-5.1-0.6-7.6-1c-14.8-2.3-29.7-4.7-44.5-7c-15.6-2.5-31.3-4.9-46.9-7.4
	c-14.6-2.3-29.2-4.7-43.8-6.9c-8.7-1.3-17.3-3.1-26.1-3.9c-8.5-0.8-17.1-1.4-25.6-2.1c-10.7-0.9-21.4-1.8-32-2.7
	c-8.6-0.7-17.2-1.4-25.8-2.1c-10.7-0.9-21.4-1.8-32-2.7c-8.4-0.7-16.9-1.4-25.3-2.1c-6.6-0.5-13.2-1.1-19.8-1.6
	c-1.4-0.1-2.9-0.2-4.3-0.2c-30.1-0.3-60.2-0.5-90.2-0.8c-36-0.3-72-0.7-108-1c-34.5-0.3-69-0.6-103.4-1c-1.3,0-2.7,0.3-3.9-0.6
	c-0.5-0.4-1.1-0.1-1.6,0.1c-2.8,1.1-5.7,1.4-8.7,1.5c-18.5,0.8-37.1,1.6-55.6,2.4c-1.2,0.1-2.4,0.3-3.5,0.7
	c-11.1,3.8-22.2,7.7-33.3,11.5c-1.8,0.6-3.2,1.6-4.4,3.1c-9.4,11.6-18.9,23.2-28.3,34.8c-1.2,1.5-2.8,2.6-3.9,4.3
	c1.3,1.1,3.2,0.9,4.8,1.4c1.7,0.5,3.4,0.8,5.1,1.1c-0.4,0.9-1.2,1-1.8,1.2C827.2-108,767.9-82.2,708.7-56.5
	C657.8-34.3,606.8-12.2,555.9,10c-0.8,0.3-1.5,0.9-2.5,0.8C553.4-1.1,553.4-12.9,553.4-24.7z"/>
<path class="st4" d="M553.4,143.7c3.6-1.6,7.3-2.8,10.6-5c9.6-6.8,19.1-13.6,28.6-20.4c6.2-4.4,12.3-8.8,18.5-13.2
	c8.4-6,16.8-12.1,25.3-18.1c5-3.6,10-7.1,15-10.7c0.8-0.5,1.4-1,1.4-2c0-0.8,0.7-1,1.2-1.4c4.2-3,8.5-6,12.7-9
	c7.9-5.6,15.9-11.2,23.8-16.8c5-3.5,9.9-6.9,14.9-10.4c8.5-6,16.9-11.9,25.4-17.9c5-3.5,9.9-6.9,14.9-10.4c8.5-6,17-11.9,25.4-17.9
	c5.9-4.2,12.1-8.1,18.2-11.9c11.1-6.9,22.2-13.8,33.3-20.7c9.2-5.7,18.4-11.5,27.6-17.3c9.5-6,19.1-11.9,28.7-17.8
	c1.4-0.9,2.7-2,4.3-2.5c0.8,2.9,0.7,3.2-1.6,4.8c-5.7,4-11.1,8.4-16.9,12.1c-10,6.3-20,12.6-30,18.9c-6.3,4-12.6,7.8-18.8,11.9
	c-6.5,4.3-12.6,9.3-18.9,13.9c-9.6,7.1-19.1,14.4-28.8,21.4c-8.7,6.3-17.4,12.7-26.1,19.1c-7.2,5.3-14.4,10.5-21.6,15.8
	c-6,4.4-12,8.9-18.1,13.4c-8.1,6-16.3,12-24.5,18c-5.9,4.4-11.8,8.7-17.7,13.1c-0.9,0.7-1.8,1.3-2.7,1.9c-0.6,0.4-1.4,0.9-1.4,1.5
	c-0.1,1.9-1.6,2.4-2.8,3.2c-12.3,7.9-24.6,15.8-36.9,23.6c-7.5,4.8-15.1,9.6-22.6,14.4c-12.4,7.9-24.9,15.8-37.4,23.8
	c-1.1,0.7-2,1.6-3.3,1.9C553.4,149.8,553.4,146.8,553.4,143.7z"/>
<path class="st1" d="M878.2,173.3c-1.9-3.1-3.7-5.9-5.5-8.8c-3.7-6.1-7.5-12.1-11.2-18.2c-0.6-1-1.1-1.9-1.1-3.1
	c0.1-12.5-0.1-25,0.2-37.4c0.2-6.5,1.2-13,1.7-19.6c0.4-5.1,1.2-10.2,1-15.3c-0.1-1.6,0.4-2.6,1.7-3.6
	c22.9-17.6,45.7-35.2,68.6-52.9c1.4-1.1,2.8-2.2,4.2-3.2c0.7-0.5,1.3-1.2,2.3-1c0.4,0.1,0.9-0.1,1-0.5c0.4-2,1.9-3.4,2.5-5.3
	c5.4-16.5,10.9-33,16.4-49.6c0.6-1.8,1.5-3.4,2.4-5c3.3-5.9,6.7-11.8,10-17.8c0.7-1.2,1.5-1.9,2.9-2.1c3.8-0.8,7.6-1.7,11.4-2.6
	c1.2-0.3,2.3-0.2,3.5,0.1c5.2,1.3,10.4,2.6,15.5,3.9c3.4,0.9,6.9,1.1,10.4,1.5c6.4,0.8,12.8,1.5,19.3,2.3c5.9,0.7,11.9,1.4,17.8,2.1
	c6.2,0.7,12.4,1.5,18.5,2.2c4.6,0.5,9.2,1.1,13.8,1.6c6.1,0.7,12.2,1.5,18.3,2.2c6.1,0.7,12.2,1.4,18.3,2.1
	c6.1,0.7,12.2,1.4,18.3,2.1c4.7,0.6,9.4,1.1,14,1.7c6.2,0.7,12.4,1.5,18.6,2.2c4.6,0.5,9.2,1.1,13.8,1.6c6.3,0.8,12.7,1.5,19,2.3
	c4.4,0.5,8.7,1,13.1,1.5c5,0.6,10,1.1,15,1.7c3.3,0.4,6.7,0.4,10.1,0.6c6.9,0.3,13.9,1.1,20.8,0.6c5.3-0.4,10.5-0.7,15.8-1
	c1.2-0.1,2.3-0.5,3.4-1.1c10.5-5.9,21-11.9,31.5-17.8c0.9-0.5,1.8-0.9,2.8-1.2c5.3-1.6,10.7-3.3,16-5c0.5-0.2,1-0.5,1.7-0.1
	c-3,3.9-4,8.8-6,13.2c-0.9,2.1-1.2,4.3-1.3,6.5c-0.4,7.7-0.6,15.5-1.1,23.2c-0.6,8.6-1.5,17.2-2.2,25.8c-0.5,5.7-0.9,11.5-1.4,17.2
	c-0.1,1.6,0.2,2.1,2,2.8c4.5,1.6,9.1,3.1,13.6,4.6c15,4.9,29.9,10.2,44.5,16.3c1.8,0.8,3.6,1,5.6,1.1c11.8,0.2,23.5,0.3,35.3,0.6
	c6.1,0.2,12.2,0.2,18.2,0.3c3.8,0.1,7.5,0.3,11.3,0.3c8.2,0.2,16.5-0.5,24.7-0.8c9.9-0.4,19.8-0.7,29.7-1.1c7.7-0.4,15.5-0.6,23.2-1
	c4.9-0.3,9.8-0.2,14.6-0.7c3.4-0.3,6.7-1.4,10-2.2c7.1-1.6,14.1-3.4,21.2-5.2c1.4-0.3,2.7-0.8,4-1.5c4.9-2.8,9.9-5.6,14.9-8.3
	c1.5-0.8,2.2-1.9,2.6-3.5c1.1-5.7,2.4-11.4,3.6-17.1c0.2-0.7,0.3-1.4,0.3-2.1c-0.2-12.7-0.3-25.4-0.6-38.1
	c-0.2-6.5-0.9-13.1-1.3-19.6c-0.1-1-0.3-1.9-0.9-2.7c-2.7-4-5.4-7.9-8.1-11.9c-0.7-1.1-1.6-1.4-2.8-1.3c-3.6,0.4-7.3,0.8-11,1.2
	c-5.1,0.6-10.1,1.2-15.2,1.7c-2.5,0.3-4.8,0.7-6.5,2.9c-1.1,1.4-2.6,2.6-3.8,3.9c-1,1.1-2.1,1.4-3.6,1.4c-10.1-0.1-20.2,0-30.2-0.2
	c-21.9-0.3-43.8-0.2-65.7-0.6c-16.9-0.3-33.8-0.2-50.6-0.4c-0.3,0-0.6,0-1,0c-1.9-0.1-1.9-0.1-1.6-1.9c0.3-2.1,0.8-4.2,1.1-6.4
	c0.2-1.2,0.6-1.8,2-1.8c6.2,0.2,12.3,0.1,18.5,0.4c7.4,0.3,14.9,0.3,22.3-0.1c2.6-0.1,5.1-0.1,7.7-0.1c12.1-0.2,24.2-0.3,36.2-0.7
	c8.2-0.3,16.5-0.2,24.7-0.5c7.7-0.3,15.4-0.2,23-0.5c5.6-0.2,11.2-0.8,16.7-1.2c5.3-0.4,10.5-0.7,15.8-1.1c6-0.4,11.9-0.9,17.9-1.4
	c0.7-0.1,1.5-0.1,1.7-1c0.2-0.9-0.5-1.3-1.1-1.7c-4-2.9-8.1-5.7-12.2-8.6c-9.6-6.8-19.2-13.5-28.8-20.3c-1.2-0.8-2.2-1.8-3.1-3
	c-5.2-7-10.4-14-15.6-21c-1.1-1.4-1.6-2.7-1.2-4.6c0.6-3.4,0.7-6.8,1.1-10.2c0-0.2,0-0.5,0-0.7c1.2-5,0.2-4.6,5.2-3.9
	c9.6,1.3,19.2,2.4,28.8,3.6c10.7,1.4,21.4,2.8,32.1,4.1c9.4,1.2,18.9,2.3,28.3,3.5c5.6,0.7,10.9,2.2,16.4,3.4
	c15.1,3.4,30.2,6.8,45.3,10.3c1,0.2,2,0.2,3-0.2c6.3-2.2,12.4-5.1,18.6-7.6c0.9-0.4,1.8-0.7,2.6-1.1c1.1-0.6,1.7-0.2,2.2,0.8
	c2,4.2,4.1,8.3,6.2,12.4c2.4,4.7,4.7,9.4,7.1,14.1c0.7,1.3,1,2.6,1,4.1c0.3,10.1,0.6,20.1,1.2,30.2c0.4,7.6,0.5,15.2,0.2,22.8
	c-0.4,12-1,24-1.4,35.9c-0.3,7.6-0.6,15.2-0.9,22.8c-0.3,7.3-0.6,14.7-0.9,22c0,1.5-0.6,2.3-1.8,3.1c-16.1,10.6-32.2,21.2-48.3,31.8
	c-2.2,1.5-4.7,2.4-7.1,3.5c-27.4,13.2-54.9,26.3-82.4,39.4c-5.9,2.8-11.8,5.6-17.7,8.5c-1.1,0.5-2.2,0.8-3.4,0.9
	c-10.2,0.3-20.5,0.6-30.7,1c-8.9,0.4-17.9,0.7-26.8,0.9c-7.4,0.2-14.9,0.6-22.3,0.9c-1.5,0.1-2.9,0.1-3.4-1.8
	c-0.2-0.9-1.1-1.1-1.9-1.3c-6-1.5-11.9-3-17.9-4.5c-0.7-0.2-1.4-0.1-2.2-0.1c-13.4,0.2-26.7,0.3-40.1,0.6
	c-7.3,0.2-14.6,0.2-21.8,0.4c-11.8,0.3-23.7,0.3-35.5,0.6c-5.6,0.1-11.2,0.1-16.8,0.4c-6.1,0.3-12.3,0.8-18.4,1.2
	c-1.8,0.1-3.5,0.1-5.3,0.2c-1,0.1-1.4-0.3-1.6-1.3c-0.7-3.7-1.5-7.3-2.1-11.1c-0.7-4.9-2.7-9.4-4.2-14c-4.7-14.2-9.4-28.3-14.4-42.4
	c-4-11.3-8.3-22.5-12.4-33.7c-0.4-1.2-1.3-1.9-2.3-2.6c-7.5-4.9-15-9.8-22.5-14.7c-1.1-0.7-2.2-1.3-2.9-2.5
	c-0.2-0.4-0.5-0.7-0.9-0.8c-4.1-1.3-7.9-3.3-11.9-4.8c-4-1.5-7.9-3.1-11.8-4.7c-4-1.6-8-3.2-12-4.8c-2.3-0.9-4.7-1-7-1.4
	c-9.1-1.5-18.3-3-27.4-4.6c-2.2-0.4-4.4-0.8-6.6-1.1c-1.4-0.2-2.9-0.1-3.8-1.6c-0.2-0.4-0.7-0.3-1.1-0.3c-4-0.3-8-0.7-11.9-1
	c-5-0.4-10-0.9-15-1.3c-4.4-0.4-8.8-0.7-13.1-1.1c-7-0.6-14-1.2-21-1.8c-4.4-0.4-8.8-0.7-13.1-1.1c-5.1-0.4-10.2-0.8-15.3-1.3
	c-3.2-0.3-6.4,0.3-9.6,0.6c-4.4,0.3-8.7,0.8-13.1,1.3c-5.8,0.6-11.6,1.2-17.4,1.7c-3.7,0.4-7.3,0.8-11,1c-1.2,0.1-2.1,0.6-2.9,1.4
	c-9.3,9.4-18.6,18.7-28,28c-0.7,0.7-1.3,1.6-1.8,2.5c-15.1,25.3-30.2,50.5-45.3,75.8c-1.7,2.8-3.9,5.3-5.9,7.9
	c-23.3,30.2-46.7,60.3-70,90.5C879,172.4,878.8,172.7,878.2,173.3z"/>
<path class="st5" d="M1317.5-73.8c-0.4,0-0.8,0-1.2,0c-0.6-0.6-0.5-1.3-0.4-2c0.1-20.1,0-40.3,0.1-60.4c0-4.5,0-4.4,4.5-4.5
	c4.7-0.1,9.4,0.3,14.1-0.2c7.7-2.1,15.5-3.8,22.9-7c3.4-1.5,6.9-2.7,10.2-4.2c2.4-1.1,4.8-1.4,7.4-1.3c21.2,0.9,42.3,1.7,63.5,2.5
	c11.5,0.5,23,0.9,34.5,1.4c12.5,0.5,24.9,1,37.4,1.5c4,0.2,3.2-0.3,3.7,3.6c0.4,3.9,0.4,7.8,0.3,11.7c0,1.3,0.2,2.5,0.9,3.6
	c2.9,5,5.7,10,8.4,15.1c0.7,1.2,1.5,2.2,2.6,3.1c7.3,6,14.6,12,21.9,18c0.9,0.7,1.8,1.3,2.8,1.9c7,3.9,13.9,7.9,20.8,11.8
	c0.5,0.3,1.2,0.4,1.6,1.3c-2.6,0.2-5.1,0.4-7.6,0.6c-17.9,1.6-35.7,2.3-53.7,2.5c-19.5,0.3-39,0.5-58.5,1.2
	c-20.6,0.6-41.1,0-61.6-0.5c-7.4-0.2-14.7-0.3-22.1-0.5c-8.7-0.2-17.4-0.3-26.1-0.6c-7.3-0.2-14.5,0.3-21.8,1
	C1320.4-73.7,1318.9-74.3,1317.5-73.8z"/>
<path class="st5" d="M661,84.7c1.3-1,2.7-2,4-3c36.8-27.1,73.5-54.3,110.4-81.1c12.6-9.1,24.8-18.6,37.3-27.9
	c5.5-4.1,11.4-7.4,17.1-11.1c12.7-8.1,25.6-16.1,38.3-24.3c4.4-2.8,8.4-6.1,12.7-9.1c0.7-0.5,1.4-1,2.1-1.5c0.8,0.4,0.5,1,0.4,1.5
	c-0.6,14.8-1.2,29.6-1.8,44.4c-0.2,3.9-0.4,7.8-0.5,11.7c0,1.5-0.6,2.5-1.7,3.4c-8.3,6.8-16.5,13.6-24.8,20.4
	c-1.4,1.1-2.6,2.4-3.7,3.7c-3.4,4.1-6.8,8.3-10.4,12.3c-4.9,5.4-8.4,11.7-12.2,17.8c-2,3.1-4.3,5.5-7.5,7.4
	c-13.9,8.2-27.7,16.7-41.6,24.8c-5.4,3.1-10,7.1-15,10.7c-3.1,2.2-6,4.5-9,6.8c-1,0.8-2,1.1-3.3,1.1c-12.2,0-24.5,0-36.7-0.1
	c-4.1,0-8.1-1-12.1-1.5c-12-1.7-23.9-3.4-35.8-5.1c-2-0.3-3.9-0.6-5.9-0.9C661,85,661,84.9,661,84.7z"/>
<path class="st6" d="M1314.7-142.8c-13.1-0.4-28-10.8-41-12c-6.5-0.6-12.9-2.2-19.4-3.4c-10.4-1.9-18-3.4-28.3-5.2
	c-0.3,0-0.5-0.1-0.8-0.1c-3.3-0.4-6.9-0.9-8.9-1c-15.4-0.8-30.8-1.6-46.2-2.4c-20.1-1-40.3-2.1-60.4-3.1c-13-0.7-26-1.5-39.1-2
	c-8.4-0.3-11.2,1.3-19.8,5.6c-4.3,2-9.8,4.6-10.7,5c-7.2,3.1-10.1,4.5-17.2,7.7c-3.9,1.7-7.3,4.3-11,6.4c-4.1,2.4-8.2,5-12.3,7.4
	c-1.1,0.7-2.1,1.4-3,2.4c-10.7,11.8-21.4,23.6-32.1,35.4c-1.3,1.4-1.9,2.9-2.2,4.8c-0.2,1.7-0.5,3.3-0.9,4.9
	c-1.3,5.3-0.6,5.7-3.5,5.3c-5.9-0.8-11.9-1.7-17.8-2.6c-11.8-1.7-23.6-3.4-35.4-5c-0.9-0.1-1.9-0.1-2.9-0.7c1.3-4.8,2.7-9.7,4-14.5
	c0.2-0.9,0.9-1.5,1.4-2.2c6.4-7.9,13.7-14.8,21.5-21.4c0.5-0.4,1.1-0.8,1.7-1.1c5.2-2.7,10.3-5.4,15.5-8.1c0.5-0.3,1.1-0.8,1.8-0.4
	c-0.4,0.8-1.2,1.2-1.9,1.8c-9,7.3-18,14.6-27,21.9c-0.8,0.7-2.1,1.1-1.8,2.5c0.3,1.2,1.6,1.2,2.5,1.6c1.1,0.4,2.3,0.5,3.1,1.4
	c0.3,0.4,0.9,0.8,1.4,0.9c9.2,2,18.5,4,27.7,6c2.6,0.6,2.8,0.5,4.3-1.8c6.7-10.1,13.3-20.2,20-30.2c0.2-0.3,0.4-0.7,0.7-1
	c1.1-1.9,0.9-2.6-1.3-2.9c-4.1-0.5-8.3-0.9-12.4-1.3c-1.8-0.2-3.7-0.4-5.9-0.6c4-1.4,7.5-1.3,11-2.4c5.6-1.8,11.4-2.7,17.2-2.6
	c5.9,0.1,10.8-2.9,16.1-4.5c7.5-2.3,15-4.9,22.1-8.3c4.5-2.1,9.6-4.3,14.6-6.4c11.3-3.9,15.8-5.6,25-6.9c0.9-0.1,1.9-0.2,2.9-0.2
	c24.5-0.2,49-0.4,73.4-0.7c6-0.1,12,0.4,17.9,1.1c15.9,1.9,31.7,3.9,47.6,5.7c18.4,2.1,36.8,4.8,55,8.4c8.9,1.7,17.8,3.4,26.7,4.8
	c4.3,0.7,10.5,5.6,14.8,6c4,0.3,8,0.6,12,1c0.3,0,0.7-0.1,0.9,0.1c1.7,1.3,3.3,0.5,5,0.1c15.4-3.7,30.8-7.4,46.2-11.1
	c1.1-0.3,2.2-0.4,3.3-0.4c25.2,0.9,50.4,1.7,75.5,2.5c10.1,0.3,20.2,0.6,30.2,1c5.7,0.3,11.3,0.9,17,1.5c11,1.1,22,2.2,32.9,3.2
	c0.5,0,1,0,1.5,0.4c-1.2,4.1-1.4,8.4-1.9,12.7c-0.7,6.3-0.7,6.3,3,11.4c4.7,6.3,9.4,12.7,14.1,19.1c0.9,1.2,1.9,2.2,3.1,3
	c12.4,8.7,24.7,17.4,37.1,26.1c0.6,0.4,1.4,0.7,1.8,1.7c-1.7,0.2-3.2,0.3-4.8,0.4c-0.5,0-0.9-0.2-1.3-0.4c-8.3-4.8-16.6-9.5-25-14.3
	c-1-0.6-2-1.3-3-2c-7.1-5.9-14.2-11.7-21.4-17.6c-1-0.8-1.8-1.8-2.4-2.9c-2.6-4.8-5.3-9.5-8-14.2c-0.7-1.3-1-2.5-0.8-4.1
	c0.4-3.8,0.6-7.7-0.3-11.4c-0.2-0.8-0.2-1.7-0.3-2.6c-0.3-2.1-0.6-2.4-2.7-2.5c-4.3-0.2-8.6-0.4-12.9-0.5
	c-31.9-1.3-63.8-2.5-95.7-3.8c-10.7-0.4-21.5-0.9-32.2-1.3c-1.4-0.1-2.8,0.2-4.1,0.8c-3.7,1.6-7.4,2.9-11.1,4.6
	c-7.6,3.4-15.7,5-23.5,7.4c-0.9,0.3-1.7,0.2-2.6,0.2c-5,0-10.1,0.1-15.1,0.1C1315.7-142.4,1315.2-142.4,1314.7-142.8z"/>
<path class="st6" d="M1522.3,258.8c-7.1,0.4-13.8,0.7-20.5,1.1c-12.3,0.6-24.6,1.2-36.9,1.9c-20.4,1-40.7,2-61.1,3
	c-10.6,0.5-21.2,1.1-31.9,1.6c-0.5,0-1,0-1.4,0.1c-1,0.1-1.4-0.3-1.5-1.3c-0.2-2.4-0.4-4.8-0.6-7.2c0-0.6,0-1.3-0.3-1.6
	c-1.1-1.1-1.1-2.6-1.4-4c-7.4-36.4-14.9-72.8-22.3-109.2c-1.1-5.2-2.1-10.3-3.2-15.5c-0.2-0.8-0.3-1.6-0.4-2.3
	c0.4-0.7,1.1-0.4,1.6-0.4c38.9-0.3,77.7-0.6,116.6-1c1.7,0,2.3,0.6,3,2c12,26,24,51.9,36,77.9c7.2,15.7,14.5,31.3,21.7,47
	C1520.9,253.3,1521.5,255.9,1522.3,258.8z"/>
<path class="st6" d="M1468.7,43.1c-4.9,0.2-8.5,0.4-12.1,0.3c-22.6-0.5-45.1-0.9-67.7-1.4c-1,0-1.9-0.2-2.8-0.6
	c-18.8-7.8-38-14.2-57.3-20.6c-2.2-0.7-2.2-0.7-2-3c1.5-19.4,3.5-38.7,4.3-58.1c0-0.8,0.2-1.6,0.1-2.4c-0.6-7.1,2.7-13.2,5.2-19.5
	c0.9-2.2,2.8-3.9,4.3-5.8c0.6-0.8,1.5-0.5,2.2-0.5c4.3,0.2,8.6,0.4,12.9,0.6c13.3,0.6,26.5,1.3,39.8,1.9c3,0.1,3,0.1,2.4,3.1
	c0,0.2-0.1,0.5-0.2,0.7c-0.4,2.3,0,2.9,2.4,2.9c8,0.1,16,0.2,24,0.3c41.9,0.4,83.8,0.7,125.8,1.2c1.8,0,3.2-0.4,4.4-1.8
	c1.6-1.8,3.4-3.4,5.1-5.1c0.7-0.7,1.5-1.1,2.5-1.3c8.8-1,17.6-2,26.5-3.1c1.5-0.2,2.3,0.2,3.1,1.5c2.1,3.3,4.4,6.5,6.6,9.7
	c0.7,0.9,1,1.9,1.1,3.1c1.7,18.4,1.6,36.9,1.9,55.4c0,1.5-0.1,3-0.4,4.5c-1.2,5.1-2.3,10.3-3.3,15.5c-0.2,1.1-0.7,1.8-1.7,2.4
	c-5,2.7-9.9,5.5-14.9,8.3c-0.8,0.5-1.7,0.8-2.7,1c-9.6,2.3-19.3,4.7-28.9,7.1c-1.8,0.4-3.6,0.5-5.5,0.6c-19,0.8-38,1.6-57.1,2.3
	C1480.4,42.6,1473.9,42.9,1468.7,43.1z"/>
<path class="st5" d="M1540.1,258c-4.8,0.2-9.4,0.4-13.9,0.7c-1,0.1-1.4-0.3-1.8-1.2c-5.9-16.8-14.3-32.5-21.6-48.6
	c-12.7-27.8-25.6-55.5-38.4-83.2c-2.3-4.9-1.2-4.1-6.3-4c-31.8,0.2-63.5,0.4-95.3,0.7c-6.8,0.1-13.6,0.2-20.4,0.2
	c-0.9,0-1.9,0.2-2.7-0.6c-0.6-0.6-1.5-0.7-2.2,0c-0.7,0.7-0.7,1.9-0.1,2.4c1.2,1.1,1.1,2.4,1.4,3.7c5.5,27.1,11.1,54.2,16.6,81.3
	c3.3,16,6.5,32,9.8,47.9c0.6,2.7,1.3,5.2,1.3,8c0,1-0.2,1.4-1.3,1.5c-5.9,0.4-11.8,0.9-17.7,1.4c-1.8,0.1-1.8,0.1-2.2-1.7
	c-1.5-7.9-3-15.9-4.4-23.8c-3.6-19.3-7.3-38.6-10.9-58c-4-21.4-8-42.9-12.1-64.3c-0.1-0.3-0.1-0.6-0.1-0.9c-0.3-1.2,0.2-1.5,1.3-1.6
	c4.6-0.2,9.1-0.5,13.6-0.9c12.4-0.9,24.8-0.9,37.2-1.1c20.6-0.3,41.1-0.7,61.7-1c7.9-0.1,15.8-0.3,23.8-0.4c1.7,0,3.3,0.2,5,0.6
	c4.6,1.2,9.1,2.3,13.7,3.4c1.4,0.3,2.3,1,2.9,2.4c18.6,43,39.3,85,59.1,127.5c0.5,1,0.9,2,1.7,2.8c0.9,0.9,0.9,2.4,1.3,3.6
	C1539.6,255.6,1539.8,256.6,1540.1,258z"/>
<path class="st7" d="M857.2-187.2c-5,2.3-9.6,4.4-14.2,6.6c-3.5,1.6-7,3.2-10.5,4.8c-0.9,0.4-1.7,0.8-1.9,1.9
	c-0.2,0.7-0.7,1.3-1.1,1.8c-4.9,7.1-9.8,14.2-14.6,21.4c-0.5,0.7-0.9,1.4-1.8,1.5c-2.7,0.3-5,1.7-7.3,2.9c-1.5,0.7-3,1.5-4.5,2.2
	c-1.2,0.6-1.8,1.4-1.9,2.8c-0.1,1.4-0.2,2.9-0.3,4.3c-0.2,1.9-0.2,1.9-2,1.6c-7-1.3-14-2.5-21-3.8c-19.9-3.6-39.8-7.2-59.7-10.8
	c-6-1.1-11.9-2.2-17.9-3.3c-1.2-0.2-2.1-0.7-2.9-1.5c-1.8-1.7-3.6-3.4-5.5-5c-1-0.8-1.5-1.8-1.8-3c-1.1-4.8-2.1-9.5-3.3-14.2
	c-0.6-2.2-0.4-4.4-0.4-6.7c0.2-6.6,0.4-13.3,0.6-19.9c0-1.5,0.3-3,0.7-4.5c1.8-6.9,3.5-13.8,5.2-20.7c0.3-1.3,0.8-1.8,2.2-2
	c10.2-1,20.3-2.2,30.5-3.3c10.9-1.2,21.8-2.4,32.7-3.6c6.2-0.7,12.4-1.4,18.6-2c2.2-0.2,4.3,0.3,6.4,0.5c9.4,1.1,18.7,2.2,28.1,3.3
	c1.5,0.2,3,0.5,4.4,1c9,2.9,17.9,5.9,26.9,8.8c1.2,0.4,2.2,0.9,3.1,1.8c1.3,1.2,2.6,2.3,4.1,3.4c2.9,2.2,5.2,5,7.6,7.6
	c0.8,0.8,0.7,1.7,0.7,2.7c-0.2,6.5-0.4,13-0.6,19.4C855.7-189.8,855.8-188.4,857.2-187.2z"/>
<path class="st1" d="M1318.1,275.5c-0.5-4.3-1-8.5-1.5-12.7c-0.7-6.2-1.5-12.4-2.2-18.5c-0.7-6-1.4-12.1-2.1-18.1
	c-0.7-6.2-1.5-12.4-2.2-18.5c-0.7-6.2-1.4-12.4-2.1-18.6c-0.7-5.8-1.4-11.6-2.1-17.4c-0.6-4.9-1.2-9.8-1.8-14.7
	c-0.7-6.1-1.5-12.2-2.2-18.3c-0.5-4.2-1-8.4-1.5-12.6c-0.1-0.8,0.2-1.2,0.9-1.5c4-2.1,7.9-4.2,11.9-6.2c1.7-0.8,2.2-0.5,2.6,1.4
	c1.6,8.2,3.2,16.5,4.7,24.7c1.8,9.8,3.6,19.6,5.5,29.4c2.2,11.6,4.4,23.2,6.5,34.8c2.2,11.6,4.4,23.2,6.6,34.8
	c1.3,6.9,2.6,13.8,3.9,20.7c0.2,1.2,0,1.9-1.2,2.4c-7.6,2.9-15.2,5.9-22.8,8.9C1318.8,275.5,1318.6,275.5,1318.1,275.5z"/>
<path class="st4" d="M1051.6-160.7c-0.1,0.5-0.3,1-0.5,1.5c-3.3,9.3-6.6,18.6-10,27.9c-0.9,2.6-2.3,5.1-3.7,7.5
	c-1.8,3.3-8,10.4-13.2,14.5c-0.7,1.4-7,3.2-8.6,3.8c-10,3.4-6.8,1.5-16.8,4.9c-11.5,4-23.1,8-34.6,11.9c-0.4,0.1-0.9,0.6-1.3,0.1
	c-0.4-0.4-0.2-0.9-0.1-1.4c0.6-2.9,1.2-5.8,1.7-8.6c0.1-0.7,0.4-1.2,0.8-1.7c2.4-2.7,4.7-5.4,7.1-8c5.6-6.1,11.3-12.1,16.8-18.4
	c2.1-2.4,4.4-4.6,6.4-7.1c2.2-2.9,5.2-4.9,8.3-6.7c6-3.5,11.9-7.2,17.8-10.7c2.2-1.3,4.6-2.1,7-3.1c5.4-2.3,10.7-4.5,16.1-6.8
	c1.9-0.8,3.9-0.4,5.9-0.4C1051.4-161.5,1051.6-161.2,1051.6-160.7z"/>
<path class="st4" d="M1314.7-142.8c0.5-0.2,1-0.2,1.4,0c0.1,1.5,0.9,1.9,2.4,1.9c5.3-0.1,10.6,0,15.9,0c-0.8,0.6-1.7,0.4-2.5,0.4
	c-4.3,0-8.6,0-12.9,0c-2.5,0-2.4-0.2-2.4,2.3c0,16.9,0,33.9,0,50.8c0,3.2,0,6.4,0,9.6c0,1.4-0.1,2.7-0.4,4c-1.6-0.3-2.6-1.8-4.1-2.4
	c-8.1-3.6-16.1-7.4-24.1-11.1c-0.7-0.3-0.8-0.4-1.8-0.8c-1.9-1.2-0.3-0.2-2-1.3c-1.6-1.2-3.2-1.2-3.4-3.2c-0.1-3-0.7-10-0.4-13
	c0.3-3.4,0.5-6.8,0.7-10.2c0.2-3.2,0.2-6.3,0.7-9.5c0.4-2.5,0.3-5.1,0.5-7.6c0.2-2.9,0.7-5.9,0.6-8.8c0-1.5,0.2-1.7,1.7-1.6
	c1.7,0.1,3.3,0.4,5,0.5c3.9,0.3,7.7,0.9,11.6,1.3c3.7,0.4,7.4,0.7,11.2,0.6C1313.9-140.9,1314.5-141.5,1314.7-142.8z"/>
<path class="st2" d="M1261.1,0.3c1,0,1.4,0.4,1.8,0.7c5.6,3.7,11.2,7.4,16.9,11c1.1,0.7,1.8,1.6,2.3,2.9
	c10.6,27.6,19.9,55.7,29.3,83.7c1.4,4.3,1.8,8.8,2.7,13.1c0.1,0.3,0.1,0.6,0.2,0.9c0.2,0.9,0.7,1.8,0.3,2.6
	c-0.4,0.8-1.5,0.3-2.2,0.7c-2.9,1.5-5.8,3.1-8.7,4.6c-0.7,0.4-1.4,0.8-2.1,1.1c-1.7,0.9-2.7,0.5-3.1-1.4c-0.7-3-1.4-6.1-2-9.1
	c-4.7-21.3-9.4-42.6-14.2-63.9c-0.8-3.7-2.2-7.2-3.3-10.8c-1.6-5.3-3.4-10.5-5.1-15.8c-0.5-1.5-1.2-3-2.1-4.3
	c-3.1-4.6-6.2-9.3-9.3-14C1262.1,1.8,1261.7,1.2,1261.1,0.3z"/>
<path class="st7" d="M1660.4-150.1c4.3-1.3,8.1-2.5,11.9-3.7c2.7-0.9,5.4-1.6,7.9-3.2c2.8-1.8,6.1-2.8,9.1-4.2
	c7.4-3.3,14.7-6.6,22.1-9.9c0.8-0.3,1.5-0.9,2.4-0.8c0.3,0.7,0.2,1.4,0.2,2.1c0,9,0,17.9,0.1,26.9c0,1.7-0.6,2.5-2.1,3.2
	c-8.5,3.5-17,7.1-25.4,10.7c-1,0.4-1.5-0.1-2.1-0.6c-4.5-3.8-9-7.6-13.6-11.5c-2.8-2.4-5.6-4.7-8.4-7.1
	C1661.9-148.7,1661.3-149.3,1660.4-150.1z"/>
<path class="st4" d="M925.2-115.3c1.7-2.2,3.4-3.9,5.2-5.3c2.5-1.9,4.6-4.2,6.9-6.2c4.7-4,9.1-8.3,13.6-12.5c1.1-1,2.3-2,3.4-3
	c1-0.9,2.1-0.6,3.2-0.5c2.8,0.3,5.5,0.6,8.3,0.9c2.4,0.3,4.9,0.5,7.3,0.8c0.4,0,0.8,0.1,1.2,0.7c-1.6,2.3-3.1,4.7-4.7,7.1
	c-4.9,7.5-9.8,14.9-14.8,22.4c-1.3,2-1.4,2-3.7,1.4c-7.8-1.7-15.7-3.3-23.5-5C926.9-114.7,926.3-115,925.2-115.3z"/>
<path class="st8" d="M1015.7-175.2c6.3-2,12.2-4,18.2-5.9c4.8-1.5,9.6-2.9,14.4-4.5c2.2-0.8,4.4-1,6.5-1.2c2.7-0.2,5.4-0.5,8.1-0.7
	c4.6-0.3,9.2-0.9,13.8-1.3c2.1-0.2,4.3-0.2,6.4-0.5c5.5-0.7,11-0.6,16.5-0.6c8.2,0.1,16.4,0.4,24.7,0.7c5.4,0.2,10.9-0.1,16.3,0.4
	c5.6,0.5,11.2,0,16.8,0.5c5.6,0.5,11.2,0,16.8,0.5c5.6,0.5,11.2,0,16.8,0.5c5.5,0.5,11,0,16.5,0.5c5.4,0.5,10.7,0,16,0.5
	c5.3,0.5,10.6,0,15.8,0.5c5.1,0.5,10.2,0,15.3,0.5c5.3,0.5,10.7,0,16,0.5c5,0.4,9.9,0,14.8,0.4c5.5,0.5,11,0.1,16.5,0.5
	c4.7,0.4,9.4,0,14.1,0.4c5.7,0.5,11.4,0.1,17,0.5c5,0.4,9.9,0,14.8,0.4c6.2,0.5,12.4,0.3,18.6,1.2c2.3,0.4,4.7,0.4,7.1,0.6
	c4.6,0.4,9.2,0.7,13.8,1.3c1.9,0.3,3.8,0.3,5.7,0.5c4.3,0.5,8.7,0.7,13.1,1.1c5.4,0.5,10.8,1,16.2,1.5c5.1,0.5,10.3,0.9,15.4,1.4
	c4.1,0.4,8.2,0.7,12.3,1.2c2.4,0.3,4.9,0.4,7.4,0.7c4.5,0.4,9,0.7,13.5,1.3c2,0.3,4,0.3,5.9,0.5c4.3,0.5,8.6,0.6,12.8,1.1
	c4.6,0.5,9.1,1.2,13.7,1.8c3.1,0.4,6.2,0.7,9.2,1c3.5,0.4,6.9,0.9,10.4,1.3c3.1,0.4,6.2,0.7,9.2,1c3.5,0.4,6.9,0.9,10.4,1.3
	c3.2,0.4,6.3,0.7,9.5,1.1c3.4,0.4,6.8,0.9,10.2,1.3c3.2,0.4,6.5,0.7,9.7,1.1c3.3,0.4,6.6,0.9,9.9,1.3c3,0.4,6,0.7,9,1.1
	c3.2,0.4,6.5,0.9,9.7,1.3c3.1,0.4,6.2,0.7,9.2,1.1c3.3,0.4,6.6,0.9,9.9,1.3c4.2,0.6,8.4,0.8,12.7,0.3c-2.2-0.4-4.5-0.7-6.8-1.1
	c-4.7-0.8-9.4-1.6-14.1-2.3c-5.5-0.9-11-1.7-16.5-2.5c-4.6-0.7-9.2-1.6-13.9-2.3c-4.4-0.7-8.8-1.3-13.2-2c-4.7-0.7-9.4-1.6-14.1-2.3
	c-4.4-0.7-8.8-1.3-13.2-2c-4.7-0.7-9.4-1.6-14.1-2.3c-5.5-0.9-11-1.7-16.5-2.5c-5.7-0.9-11.3-1.8-16.9-2.7c-1.7-0.3-3.5-0.5-5.2-0.6
	c-5.5-0.4-10.9-0.8-16.4-1.4c-2-0.2-4.1-0.4-6.2-0.5c-4.9-0.2-9.8-0.8-14.8-1.2c-4.6-0.4-9.2-0.7-13.8-1.2c-2.5-0.3-5.1-0.4-7.6-0.6
	c-3.2-0.2-6.3-0.4-9.5-0.9c-2-0.3-4.1-0.4-6.2-0.5c-4.9-0.2-9.8-0.8-14.8-1.2c-6-0.4-12.1-0.9-18.1-1.4c-5.7-0.5-11.4-1-17.1-1.4
	c-5.9-0.5-11.7-1-17.6-1.5c-5.5-0.5-10.9-0.9-16.4-1.4c-8.5-0.8-16.9-0.2-25.4-0.5c-4-0.1-8,0.1-12,0c-18.3-0.8-36.6,0-54.9-0.6
	c-16.8-0.5-33.6,0.1-50.4-0.5c-17.7-0.6-35.5,0.1-53.2-0.5c-17.1-0.6-34.2,0.1-51.3-0.5c-17.4-0.6-34.9-0.1-52.3-0.5
	c-4-0.1-8-0.3-12-0.4c-0.2,0-0.4-0.1-0.7-0.2c0.7-0.5,1.5-0.3,2.2-0.3c8.6,0,17.1-0.2,25.7,0.1c17.6,0.7,35.2-0.1,52.7,0.5
	c17.2,0.6,34.4-0.1,51.5,0.5c17.3,0.6,34.7-0.1,52,0.5c17.2,0.6,34.4-0.1,51.5,0.5c17.4,0.6,34.9-0.1,52.3,0.5
	c7.3,0.2,14.7-0.1,22,0.4c2.8,0.2,5.6,0.2,8.3,0.7c2.3,0.4,4.6,0.3,6.9,0.5c2.8,0.2,5.5,0.5,8.3,0.7c4.7,0.2,9.3,0.8,14,1.3
	c2.1,0.2,4.1,0.3,6.2,0.4c2.8,0.2,5.6,0.5,8.3,0.7c4.8,0.3,9.5,0.9,14.3,1.3c2.2,0.2,4.5,0.3,6.7,0.5c2.9,0.2,5.7,0.4,8.6,0.7
	c4.6,0.4,9.2,0.6,13.8,1.2c2.2,0.3,4.4,0.4,6.7,0.5c4.9,0.2,9.7,0.8,14.5,1.2c5.9,0.4,11.7,0.9,17.6,1.4c5.8,0.5,11.6,1,17.4,1.4
	c9.3,0.7,18.5,1.9,27.6,3.6c5.5,1,11.2,1.7,16.7,2.6c6.6,1,13.2,2.2,19.7,3.2c5.6,0.9,11.2,1.6,16.7,2.5c6.6,1,13.2,2.3,19.8,3.2
	c4.4,0.6,8.8,1.4,13.2,2c4.7,0.7,9.4,1.6,14.1,2.3c4.6,0.7,9.1,1.3,13.7,2c4.3,0.7,8.6,1.3,12.9,2.1c1.7,0.3,3.5,0.3,5.1,1.3
	c-0.9,0-1.8,0.1-2.7,0.1c-3.6,0-7.2,0-10.8-0.1c-3.6,0-7.1-0.8-10.7-1.2c-3.2-0.3-6.3-0.8-9.5-1.3c-4.6-0.6-9.3-1.3-13.9-1.8
	c-4.5-0.6-9-1-13.5-1.6c-3.2-0.4-6.3-0.9-9.4-1.3c-3.2-0.4-6.3-0.7-9.5-1.1c-3.4-0.4-6.8-0.9-10.2-1.3c-3.2-0.4-6.3-0.7-9.5-1.1
	c-3.4-0.4-6.8-0.9-10.2-1.3c-3.2-0.4-6.3-0.7-9.5-1.1c-3.4-0.4-6.8-0.9-10.2-1.3c-3.2-0.4-6.5-0.7-9.7-1.1
	c-3.5-0.4-6.9-0.8-10.4-1.3c-2-0.3-4-0.3-5.9-0.5c-4.4-0.6-8.9-0.7-13.3-1.1c-4.3-0.4-8.5-0.9-12.8-1.3c-1.9-0.2-3.8-0.2-5.7-0.5
	c-4.3-0.5-8.6-0.6-12.8-1.1s-8.5-0.7-12.8-1.3c-4.4-0.6-8.9-0.7-13.3-1.1c-4.3-0.4-8.5-1-12.8-1.3c-2.4-0.2-4.8-0.5-7.1-0.6
	c-4.4-0.3-8.9-0.8-13.3-1.3c-2-0.2-4-0.2-5.9-0.5c-4.4-0.6-8.9-0.6-13.3-1.1c-4-0.5-8-0.2-12-0.5c-6.1-0.4-12.1-0.1-18.2-0.6
	c-5-0.3-9.9,0-14.8-0.4c-5.4-0.5-10.9,0-16.3-0.5c-5-0.4-10.1,0-15.1-0.5c-5.3-0.5-10.7,0-16-0.5c-5.1-0.4-10.2,0-15.3-0.5
	c-5.3-0.5-10.6,0-15.8-0.5c-5.2-0.5-10.4,0-15.6-0.5c-5.4-0.5-10.9,0-16.3-0.5c-5.7-0.5-11.4,0-17-0.5c-5.3-0.5-10.5,0-15.8-0.4
	c-5.9-0.5-11.8-0.1-17.7-0.5c-5.3-0.4-10.6,0-15.8-0.5c-5.7-0.5-11.5,0-17.2-0.5c-5.4-0.4-10.7-0.1-16-0.5c-3.3-0.2-6.5-0.4-9.8-0.4
	c-4.1-0.1-8.1,0.4-12.1,0.9c-1.9,0.2-3.8,0.3-5.7,0.4c-2.9,0.2-5.7,0.5-8.6,0.7c-4.5,0.3-9,1.1-13.5,1.2c-4.4,0.1-8.2,1.7-12.2,3
	c-8.4,2.6-16.9,5.3-25.3,8C1017.2-175.1,1016.7-174.9,1015.7-175.2z"/>
<path class="st7" d="M856.3-172.6c-0.3,4.4-1.2,8.7-1.8,13c-0.2,1.2-1,1.2-1.9,1.4c-7.7,1.7-15.4,3.5-23.1,5.2
	c-3.2,0.7-6.4,1.4-9.6,2.2c-0.6,0.1-1.2,0.4-1.9,0.2c-0.3-0.7,0.3-1,0.6-1.4c4.4-6.4,8.8-12.8,13.1-19.2c0.8-1.2,1.7-1.6,3.1-1.5
	c6.1,0.6,12.2,1.2,18.4,1.8c1.9,0.2,1.9,0.2,2.5-1.6C855.9-172.7,856-172.7,856.3-172.6z"/>
<path class="st9" d="M1236.9,252.7c-0.5,0.1-0.9,0.3-1.4,0.4c-2.8,1.2-5.7,1-8.7,0.5c-6.6-1.2-13.2-2.2-19.7-3.3
	c-7.4-1.2-14.7-2.5-22.1-3.7c-7.2-1.2-14.4-2.3-21.6-3.5c-7.4-1.2-14.7-2.5-22.1-3.7c-7.4-1.2-14.8-2.3-22.1-3.5
	c-8.1-1.3-16.3-2.8-24.4-4.2c-6.3-1.1-12.7-2-19.1-3c-6.3-1-12.5-2.2-18.8-3.2c-5.4-0.9-10.8-1.7-16.2-2.5c-2.6-0.4-5.2-0.9-7.7-1.4
	c-1.9-0.3-1.9-0.4-1-2.1c0.1-0.2,0.3-0.4,0.5-0.7c0.6,0.8-0.5,1.3-0.1,2.1c6.3,1,12.7,2,19.1,3c6.2,1,12.4,2.1,18.6,3.2
	c5.3,0.9,10.7,1.7,16,2.6c5.3,0.8,10.5,1.7,15.8,2.6c5.4,0.9,10.8,1.8,16.2,2.7c6.4,1.1,12.8,2.2,19.3,3.2
	c5.3,0.9,10.5,1.7,15.8,2.5c6.4,1.1,12.8,2.2,19.3,3.2c5.3,0.9,10.5,1.7,15.8,2.5c6.4,1.1,12.8,2.2,19.3,3.2
	c5.3,0.9,10.7,1.7,16,2.6c2,0.3,4,0.5,5.9,1c1.6,0.4,2.9,0.2,4.4-0.3c1-0.3,2.1-0.8,3.2-0.7c0.1,0.1,0.2,0.2,0.1,0.3
	C1237,252.6,1237,252.7,1236.9,252.7z"/>
<path class="st10" d="M856.3-172.6c-0.2,0-0.4,0.1-0.5,0.1c-0.7-0.7-1.6-0.7-2.4-0.8c-4.3-0.4-8.6-0.8-12.9-1.2
	c-1-0.1-2-0.2-3.1-0.8c6.8-3.1,13.6-6.3,20.9-9.7C857.5-180.6,856.9-176.6,856.3-172.6z"/>
<path class="st11" d="M1032.3-31.3c1.5-1,3.3-0.9,5-1.1c4.7-0.5,9.5-0.9,14.2-1.4c2.4-0.2,4.7-0.5,7.1-0.7c4.1-0.3,8.2-0.9,12.3-1.3
	c2.3-0.2,4.6-0.2,6.9-0.6c3-0.5,6-0.2,9,0.1c4.7,0.4,9.5,0.6,14.2,1.3c2,0.3,4.1,0.3,6.2,0.4c2.8,0.2,5.6,0.5,8.3,0.7
	c4.6,0.3,9.2,0.9,13.8,1.3c2.1,0.2,4.3,0.3,6.4,0.5c2.9,0.2,5.9,0.4,8.8,0.7c4.4,0.4,8.9,0.6,13.3,1.2c2.6,0.3,5.2,0.5,7.9,0.6
	c1.5,0.1,3,0.3,4.5,0.5c1.2,0.2,1.7,0.9,1.2,2c-0.6,1.5-1,3-2.1,4.6c-0.1-1.6,0.7-2.8,1.2-3.9c0.8-1.8,0.6-2-1.3-2.2
	c-4.8-0.5-9.7-0.9-14.5-1.3c-2.8-0.3-5.6-0.4-8.3-0.7c-4.7-0.4-9.5-0.6-14.2-1.3c-2.1-0.3-4.3-0.3-6.4-0.5c-2.9-0.2-5.9-0.4-8.8-0.7
	c-4.4-0.4-8.9-0.5-13.3-1.2c-2-0.3-4-0.3-5.9-0.4c-2.8-0.2-5.5-0.5-8.3-0.7c-2.7-0.2-5.4-0.5-8.1-0.4c-3.2,0.1-6.3,0.4-9.5,0.9
	c-1.8,0.2-3.7,0.4-5.5,0.5c-4.3,0.2-8.5,0.9-12.8,1.1c-3.9,0.2-7.7,0.9-11.6,1.3C1038.7-31.7,1035.5-31.5,1032.3-31.3z"/>
<path class="st12" d="M1295,132.2c0-1.6,0.7-3,1.1-4.4c0.6-1.8,0.4-3.5,0-5.1c-2.8-12.8-5.6-25.6-8.5-38.4
	c-2.1-9.4-4.3-18.7-6.3-28.1c-2.2-10.8-6-21.1-9.3-31.6c-0.5-1.7-1-3.5-1.6-5.4c0.9,0.3,0.9,0.9,1,1.3c2.7,8.6,5.7,17.1,8.2,25.7
	c1.6,5.4,2.5,11,3.7,16.5c3,13.4,6,26.8,9,40.2c1.4,6.2,2.5,12.5,4.1,18.6c1.1,4.1,0.1,7.6-1.6,11.2c-0.2-0.1-0.2-0.2-0.2-0.4
	C1294.9,132.2,1294.9,132.2,1295,132.2z"/>
<path class="st13" d="M1172.2-23c0.2-1.6,0.9-2.8,1.5-4.1c0.2-0.5,0.8-0.5,1.3-0.5c4,0.7,8,1.4,12,2c5.3,0.9,10.6,1.8,16,2.7
	c4.9,0.8,9.9,1.4,14.8,2.5c3.1,0.7,6,2.2,8.9,3.4c7.3,2.9,14.5,5.8,21.8,8.7c0.6,0.2,1.1,0.6,1.7,1c-1.7-0.1-3.2-0.8-4.7-1.4
	c-8.8-3.5-17.6-7-26.4-10.6c-2.6-1.1-5.4-1.1-8.1-1.6c-6.3-1.2-12.7-2.2-19-3.2c-5-0.8-10-1.7-15-2.5c-2-0.3-2.2-0.1-3.2,1.6
	C1173.1-24.3,1173-23.6,1172.2-23z"/>
<path class="st14" d="M1295,132.2c0,0.2,0,0.4,0,0.6c-0.2,2.7-1.3,5.3-2.1,7.8c-1.2,3.6-1.7,7.2-1.8,11c-0.5,12.3-0.1,24.6-0.5,36.9
	c-0.3,7.1-0.1,14.2-0.3,21.3c0,0.9,0.1,1.8-0.6,2.5c-0.5,0.5-0.2,1,0.1,1.5c-0.2,0.2-0.2,0.5-0.5,0.5c-0.7-0.8-0.6-1.6-0.2-2.4
	c0.7-1.4,0.7-2.9,0.7-4.4c0-6.4-0.1-12.8,0.1-19.2c0.3-13.2,0.5-26.5,0.4-39.7c0-1.1,0.3-2.2,0.6-3.3c1.2-4.2,2.5-8.4,3.8-12.6
	C1294.6,132.5,1294.9,132.4,1295,132.2z"/>
<path class="st14" d="M1030.3,218c-0.8,2.6-1.1,2.9-3.5,2.5c-4.3-0.6-8.6-1.4-12.9-2.1c-4.5-0.7-9.1-1.5-13.6-2.2
	c-5.3-0.9-10.6-1.8-16-2.7c-4.3-0.7-8.6-1.4-12.9-2.1c-5.5-0.9-11-1.8-16.4-2.7c-1.6-0.3-3.3-0.3-4.7-1.4c2.9,0.6,5.9,1,8.8,1.5
	c5.5,0.9,11,1.7,16.4,2.6c4.2,0.7,8.5,1.4,12.7,2.1c5.3,0.9,10.6,1.8,16,2.6c5.5,0.9,11,1.8,16.4,2.7c2.1,0.4,4.2,0.7,6.3,1.1
	c0.9,0.2,1.7,0,2.3-0.9C1029.6,218.7,1029.6,218.1,1030.3,218z"/>
<path class="st15" d="M1016.3-192.2c-0.1,0.5-0.2,0.7-0.5,0.7c-5.9-0.8-11.8,0.3-17.7,0.4c-3.5,0-7-0.1-10.5,0.4
	c-4.6,0.7-9.3-0.1-13.8,0.8c-0.9,0.2-1.9,0-2.9,0c-5.4,0-10.8,0.6-16.3,0.6c-2.3,0-4.8,0.2-7,1.3c-0.6,0.3-1.4,0.8-2.5,0.2
	c2.6-0.9,5-2.1,7.7-2.1c5.5,0.1,11-0.4,16.5-0.6c3.5-0.1,7,0.1,10.5-0.4c4.6-0.6,9.2-0.5,13.8-0.7
	C1001.2-191.9,1008.7-192.7,1016.3-192.2z"/>
<path class="st16" d="M939.3-131.8c-0.7,0.7-1.4,1.5-2.1,2.2c-4.2,3.8-8.4,7.6-12.6,11.5c-1.2,1.1-2.2,1.4-3.6,0.5
	c-0.1-0.4,0.2-0.7,0.5-0.9c5.7-4.6,11.5-9.2,17.2-13.8C939.3-132.5,939.4-132.2,939.3-131.8z"/>
<path class="st17" d="M991.8-161.8c-1.4,1.2-2.9,2-4.8,2.2c-3.9,0.4-7.9,1.1-11.8,1.7c-3.8,0.5-7.5,1.1-11.3,1.6
	c-4.6,0.7-9.3,1.3-13.9,2c-1.4,0.2-2.2,1.5-3.7,1.8c1.7-2,2.8-2.3,6.2-2.8c5.2-0.7,10.4-1.5,15.5-2.3c3.9-0.6,7.7-1,11.6-1.6
	c2.8-0.4,5.6-1,8.5-1.3C989.5-160.7,990.5-161.8,991.8-161.8z"/>
<path class="st18" d="M1236.9,252.7c0-0.2,0-0.3,0-0.5c2.1-1,4.3-1.4,6.5-2c9.8-2.9,19.6-5.7,29.5-8.5c0.2,0.1,0.2,0.2,0.2,0.3
	c-0.1,0.1-0.1,0.2-0.2,0.2c-2.9,1.2-6,1.9-9.1,2.8C1254.9,247.5,1245.9,250.1,1236.9,252.7z"/>
<path class="st9" d="M1272.9,242.2c0-0.2,0-0.3,0-0.5c4.1-1.2,8.1-2.3,12.2-3.5c1.2-0.3,1.7-0.9,1.8-2.3c0.5-5.1,1.3-10.1,1.7-15.1
	c0.2-2.1,0.7-4.2,0.6-6.4c0.2-0.2,0.3-0.3,0.5-0.5c0.2,3.2-0.4,6.3-0.8,9.4c-0.3,2-0.4,3.9-0.6,5.9c-0.3,2.6-0.7,5.2-0.9,7.8
	c-0.1,0.8-0.4,1.3-1.2,1.5C1281.8,239.7,1277.4,241.2,1272.9,242.2z"/>
<path class="st19" d="M884.1-140.8c-0.3,1.9-0.3,1.9,1.5,2.3c2.7,0.8,5.6,0.9,8.3,1.3c6.9,1,13.8,2.3,20.6,3.6
	c0.6,0.1,1.2-0.2,1.8,0c-0.4,1.1-1.2,0.8-1.9,0.7c-3.7-0.7-7.5-1.5-11.2-2.1c-4-0.6-7.9-1.7-12-1.8c-2.6-0.1-5.1-0.9-7.7-1.5
	c-0.7-0.2-1.1-0.6-0.5-1.4C883.4-139.9,883.8-140.3,884.1-140.8z"/>
<path class="st20" d="M939.3-131.8c-0.1-0.3-0.3-0.4-0.6-0.5c2.8-2.8,6.1-5.1,9.3-7.4C945.2-137,942.7-134,939.3-131.8z"/>
<path class="st4" d="M1317.5-73.8c1.4-0.5,2.9-0.4,4.4-0.4C1320.5-73.4,1318.9-73.7,1317.5-73.8z"/>
<path class="st21" d="M911.2-80c5.8,0.5,11.6,0.9,17.4,1.4c5.5,0.4,11,0.7,16.5,1.1c3.8,0.3,7.6,0.6,11.5,0.9
	c1.9,0.2,2.3,0.9,1.5,2.7c-0.6,1.2-1.2,2.4-1.8,3.7c-7,14.4-14,28.7-21,43.1c-0.2,0.4-0.4,0.7-0.5,1.1c-1,2-1.3,2.1-3.6,1.6
	c-5.2-1.2-10.4-2.5-15.6-3.7c-6.4-1.6-12.9-3.1-19.3-4.7c-2.7-0.6-3.6-2.2-2.8-4.9c1-3.3,2.1-6.5,3.1-9.8c3.2-9.8,6.3-19.6,9.5-29.4
	c1-3.2,1-3.2,4.3-3C910.7-80,910.9-80,911.2-80C911.2-80,911.2-80,911.2-80z"/>
<path class="st22" d="M1606.8,56.6c-3.8,2.6-7.1,4.9-10.5,7.2c-5.6,4-11.4,7.7-16.9,11.8c-0.3,0.2-0.7,0.4-1,0.6
	c-1.4,0.7-2.2,0.2-2.1-1.4c0.5-4.1,1.1-8.2,1.6-12.3c0.7-6.8,2.1-13.6,2.2-20.4c0-1.1,0.6-1.8,1.7-2c4.4-0.7,8.6-2.4,12.9-3.6
	c2.1-0.5,4.1-1.2,6.2-1.8c1.2-0.4,2.6-0.4,3.1-1.9c0.2-0.5,0.8-0.6,1.2-0.3c0.9,0.6,1.8,0.4,2.7,0.1c11.2-3.4,22.5-6.7,33.7-10.1
	c18.5-5.5,37-11,55.5-16.6c2.2-0.7,2.7-0.4,3.3,1.7c0.9,3.1,1.8,6.1,2.7,9.2c0.7,2.4,0.5,2.7-1.8,3.5c-12.1,4.2-24.2,8.3-36.2,12.5
	c-5.8,2-4.6,0.5-4.9,6.7c-0.3,5.3-0.7,10.7-0.9,16c-0.1,2-1.3,2.6-2.7,3.1c-8.2,3.1-16.5,6.1-24.7,9.2c-6.6,2.4-13.2,4.9-19.8,7.3
	c-3,1.1-3.4,0.8-3.6-2.4C1608,67.6,1607.4,62.3,1606.8,56.6z"/>
<path class="st22" d="M1572,55.8c0.2,4.1-0.1,9.3-1,14.6c-0.4,2.1-1.2,3.5-3.4,4.4c-8,3.2-16,6.4-23.8,10.1c-4.2,2-8.7,2.3-13.2,3.2
	c-9.3,1.8-18.7,3.4-28,5c-10.8,1.9-21.5,3.9-32.3,5.8c-2.4,0.4-4.9,0.3-7.4,0.2c-2-0.1-4-0.2-6-0.3c-8.9-0.2-17.7-0.3-26.6-0.6
	c-11.5-0.4-23-0.6-34.5-1c-11.2-0.3-22.4-0.6-33.6-1c-7.2-0.3-14.4-0.1-21.6-0.7c-2.4-0.2-2.7-0.3-2.5-2.6c0.4-5.5,0.8-11,1.2-16.5
	c0.4-5.2,0.8-10.4,1.2-15.5c0.3-4.1,0.6-8.3,1-12.4c0.1-1.6,0.8-2,2.4-1.7c13.6,2.8,27.2,5.5,40.8,8.3c0.8,0.2,1.6,0.1,2.4,0.2
	c13,0.4,26.1,0.3,39.1,0.4c11.4,0.1,22.9,0.3,34.3,0.4c1.7,0,3.5,0.1,5.2-0.7c0.4-0.2,0.9-0.2,1.4-0.2c3.7-0.1,7.3-0.2,11-0.4
	c6.9-0.3,13.7-0.5,20.6-0.7c8.4-0.3,16.8-0.6,25.2-1c3.1-0.2,6.2-0.4,9.3-0.3c5.7,0.2,11-1.6,16.4-3.1c6.3-1.7,12.6-3.5,18.9-5.3
	c0.4-0.1,0.8-0.2,1.2-0.3c1.7-0.2,2.2,0.1,2.2,1.9C1572,48.7,1572,51.7,1572,55.8z"/>
<path class="st21" d="M1608.4,23.9c-0.7,0-1.3,0-1.6-0.6c-0.4-0.7,0.1-1,0.5-1.4c1-1,1.5-2.4,2.1-3.7c2.2-4.6,4.5-9.2,6.5-13.9
	c1.9-4.6,4.7-8.6,7.9-12.5c5-6.1,10-12.3,14.9-18.5c1.5-1.9,3.3-3.4,5.1-5.1c4.1-3.9,8.2-7.8,12.3-11.8c0.9-0.9,1.9-1.4,3.1-1.8
	c10.5-2.9,21.1-5.8,31.6-8.7c0.9-0.2,1.7-0.3,2.6-0.3c4.3,0,8.6,0,13,0c0.5,0,1,0,1.4,0.1c0.6,0.1,1.1,0.4,1.2,1
	c0.1,0.5-0.3,0.9-0.8,1.1c-0.8,0.2-0.8,0.8-1,1.5c-3.9,15.6-7.8,31.3-11.6,46.9c-0.5,2-1.5,2.9-3.4,3.5
	c-17.6,5.1-35.2,10.3-52.9,15.4c-9.6,2.8-19.2,5.6-28.7,8.4C1609.9,23.6,1609.1,23.8,1608.4,23.9z"/>
<path class="st22" d="M1672.1-121.7c8.1,0.3,16.3,0.7,24.4,1c0.6,0,1.1,0.1,1.6,0.3c0.6,0.2,1,0.7,0.6,1.3c-0.7,1-0.2,2,0,3
	c1.4,6.2,2.8,12.4,4.3,18.6c0.3,1.1,0.4,2.2,1.4,3c0.4,0.3,0.5,0.8,0.2,1.3c-0.4,0.4-0.8,0.5-1.3,0.3c-0.4-0.2-0.9-0.4-1.3-0.7
	c-11.6-8.3-23.2-16.6-34.9-24.9c-0.1-0.1-0.3-0.2-0.4-0.3c-0.6-0.4-1.3-0.8-1-1.7c0.3-0.7,0.9-1.3,1.8-1.4c1.5,0,3,0,4.5,0
	C1672.1-121.8,1672.1-121.7,1672.1-121.7z"/>
<path class="st23" d="M1147.4-48.2c0.6,0.1,0.8,0.4,0.8,1c0,0.5-0.3,0.9-0.9,0.9c-0.7,0-1-0.4-0.9-1.1
	C1146.4-47.9,1146.8-48.2,1147.4-48.2z"/>
<path class="st22" d="M1403.9-142.9c20.8,0.3,36.8,0.5,52.7,0.7c0.6,0,1.3,0,1.9,0c2.5,0.1,2.8,0.4,2.7,2.8
	c-0.6,10.5-1.2,21.1-1.8,31.6c-0.3,6-0.7,12-1,18c0,0.2,0,0.3,0,0.5c0.1,2.7,0.1,2.7-2.7,2.8c-23.3,0.5-46.5,1-69.8,1.5
	c-8.8,0.2-17.6,0.4-26.4,0.6c-0.6,0-1.1,0-1.7,0c-1-0.1-1.6-0.7-1.7-1.7c0-0.7,0-1.4,0-2.2c0.2-16.3,0.4-32.6,0.6-49
	c0-1.4,0.2-2.8-0.4-4.2c-0.5-1.1,0.1-1.8,1.3-2.1c0.6-0.1,1.3-0.1,1.9-0.1C1375.8-143.4,1392.3-143.1,1403.9-142.9z"/>
<path class="st0" d="M747.8,33.9c-0.3-1.3,0.3-2.5,1.2-3.7c3-4.3,5.9-8.6,8.8-12.9c0.7-1,1.5-1.8,2.5-2.6c8.3-5.9,16.6-11.9,25-17.7
	c3.5-2.5,7.6-4,11.5-6c7.8-4,15.7-7.9,23.6-11.8c0.6-0.3,1.2-0.7,1.7-1.2c1-1,1.8-0.7,2.1,0.7c0.4,2,0.6,3.9,0.9,5.9
	c0.8,5.2,1.5,10.4,2.3,15.7c0.3,2.2,0.3,4.2-0.4,6.4c-2.2,7-4.3,14-6.5,21.1c-0.4,1.3-0.6,2.6-2.4,2.8c-0.5,0-1.1,0.7-1.6,1
	c-20.1,14.5-40.2,28.9-60.4,43.4c-1,0.7-1.9,2.1-3.3,1.4c-1.3-0.7-0.7-2.2-0.8-3.3c-0.2-6.9-0.4-13.9-0.6-20.9
	c0-1.1,0.1-2.1-1.4-2.4c-0.8-0.2-0.9-1-1-1.8c-0.2-1.9-0.4-3.8-0.5-5.7C748.3,39.6,748.1,36.9,747.8,33.9z"/>
<path class="st0" d="M871-34.8c0,6.1,0,12.1,0,18.2c0,2-0.6,3.2-2.4,4.2c-6,3.4-11.9,6.9-17.8,10.4c-0.2,0.1-0.4,0.2-0.6,0.3
	c-1.8,0.9-2.6,0.4-2.5-1.6c0.1-1.8,0.3-3.5,0.5-5.3c1-11.1,2-22.1,2.9-33.2c0.1-1.5,0.3-2.7,2.1-2.9c0.6-0.1,1.1-0.6,1.6-1
	c4.4-3,8.7-5.9,13.1-8.9c0.4-0.3,0.8-0.6,1.2-0.8c1.5-0.9,2.5-0.4,2.5,1.4c0,4.2-0.1,8.3-0.2,12.5c0,2.2,0,4.3,0,6.5
	C871.3-34.8,871.2-34.8,871-34.8z"/>
<path class="st22" d="M1395.1,260.8c-4.4,0.1-11,0.3-17.7,0.4c-2.8,0.1-2.9,0-3.5-2.7c-4.8-21.3-9.7-42.5-14.5-63.8
	c-4.6-20.3-9.3-40.7-13.9-61c-0.2-0.8-0.2-1.7-1.1-2.2c-0.6-0.3-0.9-1-0.4-1.6c0.6-0.7,1.3-1.9,2.3-1.3c1.5,0.9,2.9,0.6,4.4,0.6
	c35.4-0.3,70.7-0.5,106.1-0.9c2.4,0,3.5,0.8,4.5,2.9c7.3,16.6,14.7,33.2,22.2,49.7c0.8,1.9,0.7,3.2-0.5,4.8
	c-4.3,5.8-8.5,11.6-12.7,17.5c-1.2,1.7-2.6,2.6-4.6,3c-17.2,3.3-34.4,6.7-51.5,10.1c-0.2,0-0.5,0.1-0.7,0.1c-1.7,0.4-1.7,0.4-1.4,2
	c0.3,1.5,0.7,3,1,4.4c2.5,11.5,5.1,22.9,7.6,34.4c0.6,2.6,0.2,3.1-2.5,3.2C1411.1,260.5,1404.2,260.6,1395.1,260.8z"/>
<path class="st22" d="M1486.5,27.9c-23.6,0.5-47.2,0.9-70.8,1.4c-2.7,0.1-3-0.3-3-3c0.2-24.6,0.5-49.3,0.7-73.9c0-0.5,0-1,0-1.4
	c0.1-1.1,0.6-1.8,1.8-1.8c0.5,0,1,0,1.4,0c43.7-0.2,87.3-0.5,131-0.7c4.1,0,4,0,4.5,4c1.5,13.3,3.1,26.7,4.6,40
	c1.2,10.2,2.3,20.3,3.5,30.5c0,0.4,0.1,0.8,0.1,1.2c0.1,1.7-0.3,2.1-2,2.3c-0.6,0.1-1.1,0-1.7,0c-21.3,0.4-42.5,0.8-63.8,1.2
	c-2.2,0-4.3,0-6.5,0C1486.5,27.8,1486.5,27.9,1486.5,27.9z"/>
<path class="st22" d="M1403.7,2.8c0,10.3,0,20.6,0,31c0,0.6,0,1.1,0,1.7c0,1-0.4,1.7-1.5,1.8c-4.4,0.5-8.7,0.9-13.1,1.4
	c-0.7,0.1-1.4-0.3-2.1-0.5c-17.6-5.9-35.2-11.7-52.8-17.6c-2.7-0.9-2.8-0.9-2.7-3.9c0.4-13.5,0.9-27,1.3-40.5
	c0.2-7.2,0.4-14.4,0.7-21.6c0-1.4-0.2-3,1.9-3.3c0.5-0.1,0.6-0.9,0.9-1.4c1.8-3.6,3.6-7.1,5.3-10.7c0.7-1.5,1.7-2.3,3.5-2.2
	c15.3,0.3,30.5,0.5,45.8,0.7c1.7,0,2.6,0.7,3.2,2.2c3.3,7.2,5,14.8,7.4,22.3c1.7,5.1,2.3,10.2,2.2,15.6
	C1403.5-14,1403.7-5.6,1403.7,2.8z"/>
<path class="st22" d="M1596.8-21.9c0.4,8,0.8,16,1.2,23.9c0.1,3.1-0.5,6.2-0.7,9.3c-0.1,2-0.4,4-0.5,6c-0.1,1.6-0.8,2.6-2.3,3.2
	c-5.2,2.4-10.4,4.9-15.6,7.4c-3.5,1.7-7.1,3.4-10.6,5c-2.2,1-2.8,0.7-3-1.8c-1.7-22.1-3.5-44.3-5.2-66.4c-0.3-4.1-0.6-8.1-1-12.2
	c-0.1-0.8,0-1.4-0.9-2c-1-0.6-0.8-1.7,0.3-2c1.2-0.3,2.3-0.9,3.7-0.9c10.1-0.2,20.1-0.4,30.2-0.7c2.6-0.1,2.8,0.1,3,2.8
	c0.5,8.8,0.9,17.6,1.4,26.3C1596.7-23.2,1596.7-22.5,1596.8-21.9z"/>
<path class="st21" d="M765.5-233.3c15.5,0.5,27.8,0.8,40,1.1c1.7,0,2.8,0.6,3.7,2.1c2,3.2,4,6.3,6.1,9.5c0.7,1,1.1,2.1,1.3,3.3
	c0.7,4.8,1.5,9.6,2.2,14.4c0.3,2.1,0.4,4.1,0.3,6.2c-0.2,8.6-0.4,17.3-0.6,25.9c0,1.6-0.5,2.6-1.8,3.6
	c-11.6,7.8-23.2,15.6-34.8,23.4c-1.2,0.8-2.4,1.1-3.8,0.8c-22.4-4.1-44.8-8.3-67.2-12.4c-1.4-0.3-2.5-0.9-3.7-1.6
	c-4-2.5-6.4-5.9-7.7-10.5c-0.8-2.9-1.5-5.8-1.5-8.9c0.1-10.7,0-21.4,0-32.1c0-1.1,0.2-2.2-0.4-3.3c-0.3-0.6-0.1-1.2,0.2-1.8
	c1.9-4.8,3.8-9.7,5.7-14.5c0.5-1.3,1.3-1.9,2.6-2.1c7.9-1.2,15.8-2.5,23.7-3.8c1.9-0.3,3.8-0.2,5.7-0.2
	C746.5-233.8,757.7-233.5,765.5-233.3z"/>
<path class="st24" d="M950.4-74.7c0.8,0,1.6,0.1,2.3,0.1c0.7,0.7,2.1-0.6,2.5,1c-4.1,8.5-8.2,17-12.3,25.5
	c-3.2,6.6-6.5,13.2-9.7,19.8c-0.8,1.8-0.8,1.8-2.7,1.3c-11-2.7-22.1-5.3-33.1-8c-2.3-0.5-2.3-0.6-1.5-2.9
	c4.1-12.7,8.2-25.4,12.2-38.1c0.6-1.8,0.6-1.8,2.5-1.6c0.7,0,1.4,0.1,2.2,0.1c-0.1,1.3-1.5,0.8-2.1,1.5c-1.7,2.2-2,5-2.8,7.6
	c-3,9.4-5.7,18.8-8.7,28.1c-0.5,1.7-0.3,2.3,1.5,2.8c7.2,1.9,14.2,4.3,21.3,6.6c1.5,0.5,3,1,4.6,1.4c1.9,0.5,3-0.1,3.8-1.9
	c3.8-8.7,7.9-17.3,11.9-25.9c2.3-4.9,4.3-10,6.9-14.7c0.4-0.5,0.6-1.1,0.5-1.7c0-0.2,0-0.4,0-0.6C949.9-74.7,950-75,950.4-74.7z"/>
<path class="st25" d="M950.4-74.7c-0.2,0.2-0.4,0.4-0.6,0.6c-2.4,0.6-4.9,0.2-7.3,0.1c-7.6-0.5-15.3-0.9-22.9-1.3
	c-3.1-0.2-6.2,0.1-9.1-1.2c0.6-0.9,1.8-0.1,2.4-0.9c3.3-0.2,6.5,0.4,9.7,0.5c6.3,0.4,12.5,0.8,18.8,1.4
	C944.4-75.2,947.5-75.4,950.4-74.7z"/>
<path class="st25" d="M955.2-73.6c-0.6-1-1.8-0.2-2.5-1c0.8-0.2,1.5-0.1,2.3,0C955.6-74.5,955.7-74.1,955.2-73.6z"/>
<path class="st5" d="M1609.3,53.7c-0.6-3.7-1.2-7-1.7-10.4c-0.3-2-0.7-3.9-0.9-5.9c-0.3-1.9-0.3-1.9,1.6-2.5
	c7.9-2.4,15.8-4.7,23.6-7c21.3-6.4,42.7-12.7,64-19.1c0.4-0.1,0.8-0.2,1.1-0.4c1-0.4,1.4,0,1.7,1c0.6,2.3,1.3,4.6,2,6.9
	c0.5,1.7,0.5,1.8-1.2,2.3c-6.9,2.4-13.7,4.8-20.6,7.1c-6.6,2.3-13.2,4.3-19.7,6.8c-6.6,2.5-13.1,5.5-19.6,8.3
	c-9.5,4.1-19.1,8.2-28.6,12.3C1610.5,53.3,1610.1,53.4,1609.3,53.7z"/>
<path class="st5" d="M1604.1,36.1c0.9,5.6,1.7,10.9,2.6,16.2c0.2,1.1-0.2,1.8-1.1,2.5c-8.6,5.9-17.2,11.9-25.8,17.8
	c-0.1,0.1-0.3,0-0.6,0c-0.3-2.2,0.3-4.2,0.6-6.3c0.9-7.4,1.9-14.7,2.8-22.1c0.1-0.9,0.3-1.7,1.3-2
	C1590.5,40.2,1597.1,38.2,1604.1,36.1z"/>
<path class="st5" d="M1459,96.5c-6.1-0.1-12.1-0.3-18.1-0.4c-7.4-0.2-14.9-0.5-22.3-0.7c-20.9-0.6-41.7-1.1-62.6-1.7
	c-4.6-0.1-9.1-0.3-13.7-0.4c-1.8-0.1-1.9-0.1-1.7-1.9c0.5-7.5,1.1-15,1.7-22.5c0.4-5.3,0.8-10.7,1.2-16c0-0.6,0.1-1.1,0.1-1.7
	c0.2-2.2,0.2-2.2,2.3-1.8c2.4,0.5,4.9,1,7.3,1.5c10.5,2.1,21,4.2,31.5,6.3c1.1,0.2,2.2,0.2,3.3,0.2c23.5,0.2,47,0.4,70.5,0.6
	c0.6,0,1.3,0,1.9,0c1.8,0.1,1.9,0.1,1.7,1.9c-0.9,8-1.8,16-2.7,24.1c-0.4,3.2-0.7,6.4-1.1,9.5C1458.2,94.6,1458.5,95.5,1459,96.5z"
	/>
<path class="st5" d="M1502.9,55.9c11-0.4,22.1-0.9,33.1-1.3c0.6,0,1.3-0.1,1.9-0.1c1.7,0,1.7,0,1.8,1.7c0.2,4.2,0.4,8.5,0.6,12.7
	c0.2,4.3,0.4,8.6,0.6,12.9c0.1,2,0,2-1.8,2.4c-22.7,4.1-45.5,8.2-68.2,12.3c-0.8,0.1-1.6,0.2-2.4-0.1c-2.1-0.6-4.3-1.2-6.5-1.8
	c-1-0.3-1.5-0.7-1.3-1.8c0.9-7.2,1.7-14.5,2.5-21.7c0.4-3.7,0.8-7.3,1.2-11c0.3-2.3,0.6-2.7,2.9-2.8c7.8-0.3,15.7-0.6,23.5-0.9
	C1494.9,56.2,1498.9,56,1502.9,55.9C1502.9,55.9,1502.9,55.9,1502.9,55.9z"/>
<path class="st5" d="M1543.2,82c-0.1-2.2-0.3-4.5-0.4-6.9c-0.3-6.5-0.6-13.1-0.9-19.6c-0.1-1,0.1-1.7,1.2-2
	c8.7-2.4,17.4-4.8,26.1-7.2c0.1,0,0.2,0,0.3,0c0.1,0.2,0.2,0.4,0.2,0.6c-0.1,7.7,0.6,15.5-1,23.2c-0.2,1-0.5,1.7-1.5,2.2
	c-7.6,3.2-15.2,6.4-22.7,9.5C1544.1,82.2,1543.7,82.3,1543.2,82z"/>
<path class="st26" d="M1611,21.1c-0.3-0.9,0-1.4,0.2-1.9c3-6.4,6.1-12.9,9.1-19.3c1.3-2.6,3.4-4.6,5.2-6.9
	c3.6-4.6,7.4-9.2,11.1-13.8c2.9-3.5,5.6-7.1,9.1-10.1c2.9-2.4,5.5-5.4,8.2-8c1.3-1.3,2.7-2.5,4.1-3.7c0.7-0.7,1.7-0.9,2.6-1.2
	c8.5-2.3,17.1-4.4,25.5-7.1c5.9-1.9,11.9-1.2,17.8-1.3c1.3,0,1.4,0.2,1,1.7c-1.7,7-3.4,13.9-5.2,20.9c-2,8-4.1,16.1-6,24.1
	c-0.5,1.9-1.3,3-3.3,3.5c-9.4,2.6-18.7,5.3-28,8c-8.6,2.5-17.1,5.1-25.7,7.6c-8,2.4-16,4.7-24.1,7.1
	C1612.3,20.9,1611.7,21,1611,21.1z"/>
<path class="st27" d="M1407.1-87.9c-15.4,0.3-30.9,0.7-46.3,1c-0.5,0-1,0-1.4,0c-0.7,0-1-0.4-1-1c0-0.5,0-1,0-1.4
	c0.2-16.6,0.4-33.1,0.6-49.7c0-2.2,0-2.2,2.3-2.2c24,0.3,48,0.7,72,1c7.7,0.1,15.4,0.2,23,0.3c2.6,0,2.5-0.3,2.4,2.7
	c-0.3,6.6-0.7,13.3-1.1,19.9c-0.5,8.3-0.9,16.6-1.4,24.9c0,0.5,0,1-0.1,1.4c-0.2,2,0.1,2-2,2c-2.6,0.1-5.1,0.1-7.7,0.2
	C1433.3-88.4,1420.2-88.1,1407.1-87.9C1407.1-87.9,1407.1-87.9,1407.1-87.9z"/>
<path class="st4" d="M749.9,33.7c-0.2-0.7,0.1-1.2,0.5-1.8c3.2-4.7,6.4-9.5,9.7-14.3c0.3-0.4,0.8-0.8,1.2-1.1
	c8.6-6.1,17.3-12.3,25.9-18.4c0.5-0.4,1.1-0.6,1.7-0.9c9.9-5,19.9-9.9,29.8-14.9c0.7-0.4,1.5-1.3,2.4-0.6c0.8,0.6,0,1.5-0.2,2.2
	c-2,7.9-4.1,15.9-6.1,23.8c-0.3,1.2-1.1,1.9-1.9,2.6c-2.5,2.2-5,4.4-7.5,6.6c-3.4,3-6.9,6-10.3,8.9c-1.5,1.3-2.8,2.8-4.4,4
	c-1,0.8-2.1,1.4-3.3,1.9c-5.6,2.4-11.1,4.8-16.7,7.1c-5.2,2.2-10.4,4.4-15.6,6.7c-3.7,1.6-4,1.4-4.2-2.5
	C750.5,40,750.1,36.9,749.9,33.7z"/>
<path class="st28" d="M753.7,60.8c0-3.4,0-6.9,0-10.3c0-0.8-0.1-1.6,1.2-1.5c1.8,0.1,2,0.2,1.9,1.6c-0.4,7-0.8,14-1.3,21
	c0,0.2,0,0.3-0.1,0.5c-0.1,0.4-0.4,0.7-0.9,0.7c-0.4,0-0.4-0.4-0.4-0.7c0-1.4-0.1-2.9-0.1-4.3c0-2.3,0-4.6,0-6.9
	C754,60.8,753.9,60.8,753.7,60.8z"/>
<path class="st14" d="M822.3-11.8c-0.8,3.1-1.6,6.1-2.4,9.2c-0.9,3.4-1.8,6.8-2.6,10.2c-0.6,2.8-2.6,4.4-4.6,5.9
	c-0.1-0.1-0.2-0.2-0.4-0.3c0.8-0.8,1.6-1.6,2.5-2.4c0.9-0.8,1.4-1.8,1.7-3.1c1.8-6.9,3.6-13.9,5.4-20.8c0.1-0.5,0.1-1.1,0.8-1.6
	c0.7,1.4,0.7,2.9,0.9,4.3c0.6,4.1,1.2,8.2,1.8,12.2c0.1,0.9,0.2,1.7-0.1,2.6c-1.8,5.7-3.5,11.4-5.2,17.1c-0.3,0.8-0.5,1.7-0.8,2.5
	c-0.9,3.6-0.9,3.6-4.3,5.7c0.5-1,0.5-1.1,1.5-1.6c0.8-0.4,1.1-0.9,1.4-1.8c2.1-7.1,4.3-14.2,6.5-21.2c0.3-1.1,0.5-2,0.3-3.2
	c-0.7-3.9-1.1-7.9-1.6-11.8c-0.1-0.7-0.3-1.4-0.5-2.1C822.5-11.8,822.4-11.8,822.3-11.8z"/>
<path class="st29" d="M851.5-5c-0.3,0.4-0.6,0.8-1.1,0.6c-0.5-0.2-0.4-0.7-0.4-1c0.2-1.7,0.3-3.3,0.5-5c0.5-4.5,0.7-9,1.2-13.5
	c0.3-2.6,0.5-5.2,0.7-7.8c0.2-3.1,0.6-6.2,0.9-9.2c0.1-0.7,0.2-1.3,1.2-1.4c-1.1,1.8-0.9,3.7-1,5.5c-0.2,2.7-0.5,5.4-0.7,8.1
	c-0.2,4.4-0.9,8.7-1.2,13c-0.3,3.1-0.4,6.2-0.6,9.3c0,0.5,0,1,0.4,1.3L851.5-5z"/>
<path class="st30" d="M868.3-51.7c0.2-0.4,0.5-0.7,0.9-0.6c0.3,0.1,0.5,0.4,0.4,0.8c-0.6,8.5,0,16.9-0.4,25.4
	c-0.2,3.5-0.3,7-0.4,10.5c0,0.2,0,0.5-0.4,0.6c-0.7-0.2-0.2-0.7-0.2-1.1c0-2.5,0-5,0-7.4c-0.1-8.5,0.7-17.1,0.5-25.6
	C868.7-49.9,869.1-50.9,868.3-51.7L868.3-51.7z"/>
<path class="st29" d="M851.4-5.1c0.5-0.8,1.2-1.1,2.5-1.5c-0.8,1.1-1.6,1.4-2.4,1.6C851.5-5,851.4-5.1,851.4-5.1z"/>
<path class="st30" d="M868.3-51.6c-0.1,0.2-0.2,0.4-0.4,0.5c-0.2,0.2-0.5,0.5-0.7,0.2c-0.2-0.3,0.2-0.5,0.4-0.6
	C867.8-51.6,868-51.6,868.3-51.6L868.3-51.6z"/>
<path class="st4" d="M1364.8,131.2c4.9,0,9.8,0.2,14.6,0c19.2-0.9,38.4,0,57.5-0.5c6.3-0.2,12.6-0.1,18.9-0.4c1.7-0.1,2.6,0.4,3.3,2
	c2.3,5.4,4.8,10.8,7.2,16.2c1.6,3.6,3.3,7.3,4.9,10.9c3.4,7.5,6.7,15,10.1,22.5c0.5,1.1,0.1,1.9-0.4,2.6c-3.1,4.3-6.3,8.6-9.5,12.9
	c-1.1,1.5-2.2,2.9-3.2,4.5c-0.8,1.1-1.7,1.7-3.1,2c-8.4,1.6-16.8,3.5-25.2,5.1c-9,1.7-17.9,3.5-26.9,5.3c-0.9,0.2-1.9,0-2.9,0.1
	c-1.5,0.2-1.9,1.1-1.2,2.4c1,1.9,1.1,4,1.6,6c1.9,8.3,3.7,16.6,5.5,24.9c0.6,3,1.3,5.9,2,8.8c0.3,1,0.1,1.4-1,1.6
	c-1,0.2-2,0.4-3.1,0.4c-5.1,0-10.2-0.2-15.4,0.1c-6.7,0.4-13.4,0.4-20.1,0.4c-2.4,0-2.4,0-3-2.4c-2.7-12-5.4-24-8.2-36.1
	c-2.7-11.6-5.3-23.2-8-34.9c-2.6-11.2-5.2-22.5-7.7-33.7c-1.4-6.2-2.8-12.4-4.1-18.6c-0.4-1.9-0.3-2,1.7-2.1
	C1354.5,131.2,1359.6,131.2,1364.8,131.2C1364.8,131.2,1364.8,131.2,1364.8,131.2z"/>
<path class="st27" d="M1486.5,25.5c-23.1,0.5-46.2,0.9-69.3,1.4c-2,0-2,0-2-2.2c0.2-20.3,0.4-40.6,0.6-60.9c0-3.3,0.1-6.6,0.1-9.8
	c0-2.4-0.2-2.3,2.4-2.3c5.7-0.1,11.4-0.1,17-0.1c37.2-0.2,74.4-0.4,111.6-0.6c0.2,0,0.5,0,0.7,0c2.1,0,2,0,2.3,2.1
	c1.9,16.3,3.7,32.6,5.6,48.8c0.8,6.8,1.6,13.7,2.3,20.5c0.2,1.7,0.2,1.8-1.8,1.8c-9,0.2-18.1,0.4-27.1,0.5
	C1514.8,24.9,1500.7,25.2,1486.5,25.5C1486.5,25.5,1486.5,25.5,1486.5,25.5z"/>
<path class="st4" d="M1401.6,2c0,10.1,0,20.2,0,30.2c0,0.6,0,1.3,0,1.9c0,0.7-0.4,1-1,1.1c-0.9,0.1-1.9,0.4-2.8,0.5
	c-2.8,0.3-5.5,0.5-8.3,0.8c-0.7,0.1-1.4-0.3-2.1-0.5c-17.2-5.7-34.4-11.4-51.6-17.2c-2.3-0.8-2.3-0.8-2-3.4c0-0.3,0.1-0.6,0-1
	c-0.3-7.7,0.4-15.3,0.6-23c0.2-6.1,0.1-12.1,0.5-18.2c0.3-4.6,0.2-9.3,0.4-13.9c0.1-1.7,0.3-3.3,0.4-5c0-0.2,0.1-0.5,0.2-0.7
	c3-3.1,4.1-7.3,6.2-11c2.4-4.3,1.1-3.6,5.9-3.6c6.8,0,13.6-0.2,20.4,0.1c7.2,0.3,14.4,0.3,21.6,0.4c1.3,0,2,0.6,2.5,1.8
	c2.6,5.4,4,11.2,5.7,17c0.9,2.9,1.6,5.8,2.5,8.7c0.6,1.8,0.9,3.5,0.9,5.4C1401.6-17.6,1401.6-7.8,1401.6,2z"/>
<path class="st4" d="M1582.6-50.7c3.7,0,6.3,0,8.8,0c1.2,0,1.6,0.4,1.7,1.7c0.2,3.3,0.3,6.7,0.5,10c0.4,6.3,0.6,12.6,1,18.8
	c0.3,5.9,0.8,11.8,0.9,17.7c0,1.3,0.4,2.5,0.4,3.8c0,3.1-0.4,6.2-0.8,9.3c-0.3,2.1,0,4.1-0.5,6.2c-0.3,1.1-0.7,1.8-1.8,2.3
	c-5.1,2.4-10.2,4.9-15.4,7.3c-2.8,1.3-5.6,2.7-8.4,4c-1.5,0.7-1.9,0.5-1.9-1.1c-0.1-5-0.7-10-1.1-15c-0.4-5-0.7-10-1.2-15
	c-0.3-2.9-0.5-5.9-0.7-8.8c-0.2-3-0.2-6-0.8-9c-0.4-2.2-0.3-4.4-0.5-6.7c-0.2-2.9-0.5-5.9-0.7-8.8c-0.2-3-0.2-6-0.8-9
	c-0.4-1.9,0.1-3.8-0.4-5.7c-0.2-0.7,0.3-1.1,0.9-1.2c0.3-0.1,0.6-0.1,1-0.1C1569.9-49.9,1576.8-50.9,1582.6-50.7z"/>
<path class="st31" d="M768.5-230.8c11.9,0.4,23.8,0.7,35.7,1c1.7,0,2.7,0.6,3.6,2.1c1.7,2.8,3.5,5.5,5.3,8.3c0.5,0.8,0.9,1.7,1,2.6
	c0.7,4.9,1.5,9.8,2.3,14.7c0.2,1.3,0.3,2.5,0.3,3.8c-0.2,9-0.5,17.9-0.6,26.9c0,1.3-0.5,2-1.5,2.7c-11.2,7.5-22.4,15.1-33.6,22.6
	c-1,0.7-1.9,0.8-3.1,0.6c-22.2-4.1-44.3-8.2-66.5-12.2c-1-0.2-1.8-0.5-2.6-1.1c-4.8-3.5-4.7-3.6-6.8-9.1c-1.1-2.9-1.6-5.8-1.5-8.9
	c0.1-10.8,0-21.6,0-32.4c0-0.9,0.1-1.8-0.2-2.6c-0.3-0.8-0.1-1.4,0.2-2.1c1.6-4.2,3.3-8.3,4.9-12.5c0.3-0.9,0.8-1.4,1.8-1.5
	c7.9-1.2,15.8-2.6,23.7-3.8c3.5-0.5,7,0,10.5,0.1C750.4-231.4,759.4-231.1,768.5-230.8C768.5-230.8,768.5-230.8,768.5-230.8z"/>
<path class="st21" d="M910.5-76.6c10,0.5,19.9,1,29.9,1.6c2.4,0.1,4.8,0.4,7.2,0.3c0.8,0,1.5,0.4,2.3,0.6l0,0c0.4,0.6,0.4,1.2,0,1.9
	c-6.3,13.6-12.5,27.3-18.8,40.9c-0.2,0.5-0.4,1-0.7,1.5c-0.8,1.5-1.2,1.7-2.9,1.3c-0.4-0.1-0.8-0.2-1.1-0.4c-8-2.5-16-5.1-24-7.6
	c-0.8-0.3-1.6-0.6-2.5-0.5c-1.5,0.1-2-0.6-1.7-2c0.2-0.9,0.7-1.8,0.9-2.7c3.3-10.7,6.6-21.5,10-32.2C909.4-75,909.4-76.1,910.5-76.6
	z"/>
<path class="st25" d="M949.9-72.3c0-0.6,0-1.2,0-1.9C950.7-73.5,950.5-72.9,949.9-72.3z"/>
<path class="st32" d="M1375,4c-3.9,0.6-8.5-0.5-13.1-1.9c-1.7-0.5-2-0.9-2.1-2.7c-0.1-1.3,0.1-2.5-0.3-3.8c-0.4-1,0.3-1.7,1.2-1.5
	c3.3,0.7,6.7,0.1,10,0.6c0.8,0.1,1.6,0.3,2.4,0.2c4.1-0.2,8.1,0.6,12.2,0.5c1.7,0,2.3,0.8,1.8,2.5c-0.6,1.6-1.4,3.2-2.2,4.8
	c-0.5,1-1.5,1.4-2.6,1.3C1380.1,3.9,1378,4,1375,4z"/>
<path class="st33" d="M1577.9-3.6c-2.6,0-3-0.2-2.9-2c0-1.3-0.5-2.5-0.5-3.8c0-1.5,0.3-1.7,1.8-1.2c0.5,0.2,0.9,0.1,1.4,0
	c2.7-0.5,5.5-1,8.2-1.5c1.9-0.3,2.7,0.2,2.9,2.1c0.1,0.9,0,1.7,0.3,2.6c0.4,1.1-0.1,1.7-1.2,1.9C1584.2-4.8,1580.7-4.2,1577.9-3.6z"
	/>
<path class="st4" d="M913.1-74.5c5.2,0.2,10.5,0.6,15.7,0.9c5.6,0.2,11.3,0.8,16.9,0.9c1.6,0,1.8,0.4,1,1.9
	c-2.9,6.2-5.8,12.5-8.6,18.7c-2.9,6.4-5.8,12.8-8.7,19.2c-0.1,0.2-0.2,0.4-0.3,0.7c-0.8,1.7-0.8,1.7-2.5,1.2c-2-0.6-4-1.2-5.9-1.8
	c-6.1-1.9-12.2-3.9-18.2-5.8c-1.6-0.5-1.8-0.8-1.3-2.4c2.1-6.7,4.1-13.4,6.2-20.1c1.2-3.9,2.4-7.8,3.6-11.7
	C911.3-74,911.7-74.9,913.1-74.5z"/>
<path class="st34" d="M1384.6-2.4c-1.4,4.1-1.4,4.1-5.2,4.1c-2.1,0-4.2-0.1-6.2,0c-3.4,0.3-6.6-0.5-9.9-1.5c-1.2-0.4-2-2.4-1.3-3.4
	c0.4-0.6,1-0.4,1.5-0.3c4.5,0.2,8.9,0.5,13.4,0.8C1379.4-2.7,1381.9-2.6,1384.6-2.4z"/>
<path class="st35" d="M1577.9-5.9c-0.8,0.1-1-0.3-1-1c0-0.6-0.4-1.4,0.5-1.6c2.7-0.5,5.5-1,8.2-1.4c1-0.2,0.8,0.8,1,1.3
	c0.2,0.6,0,1.1-0.7,1.2c-1.2,0.2-2.4,0.4-3.5,0.7C1580.9-6.4,1579.4-6.1,1577.9-5.9z"/>
<path class="st36" d="M964.9-87.1c17.2-5.4,34.3-10.8,51.5-16.2l264.7,13.2l32.4,17.2l-49.5,20.1l-27.4,0.3L964.9-87.1z"/>
<g>
	<linearGradient id="SVGID_1_" gradientUnits="userSpaceOnUse" x1="1203.0933" y1="-118.3813" x2="1070.5737" y2="-118.3813">
		<stop  offset="0" style="stop-color:#B3B3B3"/>
		<stop  offset="1" style="stop-color:#2D292A"/>
		<stop  offset="1" style="stop-color:#000000"/>
	</linearGradient>
	<circle class="st37" cx="1136.8" cy="-118.4" r="66.3"/>
	<radialGradient id="SVGID_2_" cx="1136.8335" cy="-118.3813" r="63.4281" gradientUnits="userSpaceOnUse">
		<stop  offset="0" style="stop-color:#333333"/>
		<stop  offset="0.3438" style="stop-color:#2E2B2C"/>
		<stop  offset="1" style="stop-color:#2D292A"/>
		<stop  offset="1" style="stop-color:#000000"/>
	</radialGradient>
	<linearGradient id="SVGID_3_" gradientUnits="userSpaceOnUse" x1="1069.9054" y1="-118.3813" x2="1203.7615" y2="-118.3813">
		<stop  offset="0" style="stop-color:#B3B3B3"/>
		<stop  offset="1" style="stop-color:#2D292A"/>
		<stop  offset="1" style="stop-color:#000000"/>
	</linearGradient>
	<circle class="st38" cx="1136.8" cy="-118.4" r="63.4"/>
	<path class="st39" d="M1184.5-90.3l-1.6-0.9c0.4-0.6,0.8-1.3,1.1-2l1.6,0.9C1185.3-91.6,1184.9-90.9,1184.5-90.3z M1088.3-92.1
		c-0.4-0.7-0.7-1.4-1.1-2.1l1.6-0.8c0.3,0.7,0.7,1.3,1,2L1088.3-92.1z M1191.8-109.8l-1.8-0.3c0.1-0.7,0.2-1.5,0.3-2.2l1.8,0.2
		C1192-111.3,1191.9-110.5,1191.8-109.8z M1081.8-111.9c-0.1-0.8-0.2-1.5-0.2-2.3l1.8-0.2c0.1,0.7,0.1,1.5,0.2,2.2L1081.8-111.9z
		 M1189.5-130.2c-0.2-0.7-0.3-1.5-0.5-2.2l1.8-0.5c0.2,0.7,0.4,1.5,0.5,2.3L1189.5-130.2z M1084.9-132.3l-1.8-0.4
		c0.2-0.7,0.4-1.5,0.6-2.2l1.7,0.5C1085.3-133.8,1085.1-133,1084.9-132.3z M1181.7-148.7c-0.4-0.6-0.8-1.2-1.3-1.8l1.5-1.1
		c0.5,0.6,0.9,1.3,1.3,1.9L1181.7-148.7z M1093.5-150.5l-1.5-1.1c0.5-0.6,0.9-1.2,1.4-1.9l1.4,1.1
		C1094.4-151.7,1093.9-151.1,1093.5-150.5z M1167.6-163.1c-0.6-0.4-1.2-0.8-1.9-1.2l1-1.5c0.7,0.4,1.3,0.8,1.9,1.3L1167.6-163.1z
		 M1108.2-164.3l-1-1.5c0.6-0.4,1.3-0.8,2-1.2l0.9,1.6C1109.4-165.1,1108.8-164.7,1108.2-164.3z M1149.2-171.3
		c-0.7-0.2-1.5-0.3-2.2-0.5l0.3-1.8c0.8,0.1,1.5,0.3,2.3,0.5L1149.2-171.3z M1126.9-171.7l-0.3-1.8c0.8-0.1,1.5-0.3,2.3-0.4l0.3,1.8
		C1128.3-172,1127.6-171.9,1126.9-171.7z"/>
	<circle class="st40" cx="1136.8" cy="-118.4" r="60"/>
	<path class="st39" d="M1185.8-89.3l-1.6-1c0.4-0.7,0.8-1.3,1.2-2l1.6,0.9C1186.6-90.7,1186.2-90,1185.8-89.3z M1086.8-91.3
		c-0.4-0.7-0.8-1.4-1.1-2.1l1.7-0.8c0.3,0.7,0.7,1.4,1.1,2L1086.8-91.3z M1189.1-95.7l-1.7-0.8c0.3-0.7,0.6-1.4,0.9-2.1l1.7,0.7
		C1189.7-97.2,1189.4-96.4,1189.1-95.7z M1083.7-97.8c-0.3-0.7-0.6-1.5-0.8-2.2l1.8-0.6c0.3,0.7,0.5,1.5,0.8,2.2L1083.7-97.8z
		 M1191.6-102.5l-1.8-0.5c0.2-0.7,0.4-1.5,0.6-2.2l1.8,0.5C1192-104,1191.8-103.2,1191.6-102.5z M1081.5-104.6
		c-0.2-0.8-0.4-1.6-0.5-2.3l1.8-0.4c0.2,0.7,0.3,1.5,0.5,2.3L1081.5-104.6z M1193.2-109.4l-1.8-0.3c0.1-0.8,0.2-1.5,0.3-2.3l1.9,0.2
		C1193.5-111,1193.3-110.2,1193.2-109.4z M1080.1-111.6c-0.1-0.8-0.2-1.6-0.3-2.4l1.9-0.2c0.1,0.8,0.1,1.5,0.2,2.3L1080.1-111.6z
		 M1194-116.6l-1.9-0.1c0-0.7,0-1.5,0-2.3v-0.1h1.9v0.1C1194-118.1,1194-117.4,1194-116.6z M1081.5-118.8h-1.9v-0.1
		c0-0.8,0-1.6,0-2.4l1.9,0.1c0,0.8,0,1.5,0,2.3V-118.8z M1191.9-123.6c-0.1-0.8-0.1-1.5-0.2-2.3l1.9-0.2c0.1,0.8,0.2,1.6,0.2,2.4
		L1191.9-123.6z M1082-125.8l-1.9-0.2c0.1-0.8,0.2-1.6,0.3-2.4l1.8,0.3C1082.2-127.4,1082.1-126.6,1082-125.8z M1190.9-130.5
		c-0.2-0.8-0.3-1.5-0.5-2.3l1.8-0.5c0.2,0.8,0.4,1.6,0.5,2.3L1190.9-130.5z M1083.3-132.7l-1.8-0.5c0.2-0.8,0.4-1.5,0.6-2.3l1.8,0.5
		C1083.7-134.2,1083.5-133.4,1083.3-132.7z M1189.1-137.2c-0.3-0.7-0.5-1.5-0.8-2.2l1.7-0.7c0.3,0.7,0.6,1.5,0.8,2.2L1189.1-137.2z
		 M1085.4-139.3l-1.7-0.7c0.3-0.7,0.6-1.5,0.9-2.2l1.7,0.8C1086-140.7,1085.7-140,1085.4-139.3z M1186.4-143.5
		c-0.3-0.7-0.7-1.4-1.1-2l1.6-0.9c0.4,0.7,0.8,1.4,1.1,2.1L1186.4-143.5z M1088.4-145.6l-1.6-0.9c0.4-0.7,0.8-1.4,1.2-2.1l1.6,1
		C1089.1-146.9,1088.7-146.2,1088.4-145.6z M1182.9-149.6c-0.4-0.6-0.9-1.3-1.3-1.9l1.5-1.1c0.5,0.6,0.9,1.3,1.4,2L1182.9-149.6z
		 M1092.1-151.4l-1.5-1.1c0.5-0.6,1-1.3,1.4-1.9l1.5,1.2C1093-152.7,1092.5-152,1092.1-151.4z M1178.7-155.1c-0.5-0.6-1-1.2-1.6-1.7
		l1.4-1.3c0.5,0.6,1.1,1.2,1.6,1.8L1178.7-155.1z M1096.5-156.8l-1.4-1.3c0.5-0.6,1.1-1.2,1.7-1.7l1.3,1.3
		C1097.6-157.9,1097-157.3,1096.5-156.8z M1173.8-160c-0.6-0.5-1.2-1-1.8-1.5l1.2-1.4c0.6,0.5,1.2,1,1.8,1.6L1173.8-160z
		 M1101.6-161.5l-1.2-1.4c0.6-0.5,1.2-1,1.9-1.5l1.1,1.5C1102.8-162.5,1102.2-162,1101.6-161.5z M1168.4-164.3
		c-0.6-0.4-1.3-0.9-1.9-1.3l1-1.6c0.7,0.4,1.3,0.9,2,1.3L1168.4-164.3z M1107.2-165.6l-1-1.6c0.7-0.4,1.4-0.8,2-1.2l0.9,1.6
		C1108.5-166.4,1107.8-166,1107.2-165.6z M1162.4-167.9c-0.7-0.4-1.4-0.7-2.1-1l0.8-1.7c0.7,0.3,1.4,0.7,2.1,1.1L1162.4-167.9z
		 M1113.3-169l-0.8-1.7c0.7-0.3,1.5-0.7,2.2-1l0.7,1.7C1114.7-169.6,1114-169.3,1113.3-169z M1156.1-170.8c-0.7-0.3-1.5-0.5-2.2-0.8
		l0.6-1.8c0.8,0.2,1.5,0.5,2.3,0.8L1156.1-170.8z M1119.7-171.5l-0.6-1.8c0.8-0.2,1.5-0.5,2.3-0.7l0.5,1.8
		C1121.2-172,1120.4-171.8,1119.7-171.5z M1149.4-172.8c-0.7-0.2-1.5-0.3-2.3-0.5l0.3-1.8c0.8,0.1,1.6,0.3,2.3,0.5L1149.4-172.8z
		 M1126.4-173.2l-0.3-1.8c0.8-0.1,1.6-0.3,2.4-0.4l0.3,1.8C1128-173.5,1127.2-173.4,1126.4-173.2z M1142.6-173.9
		c-0.8-0.1-1.5-0.1-2.3-0.2l0.1-1.9c0.8,0,1.6,0.1,2.4,0.2L1142.6-173.9z M1133.3-174.1l-0.1-1.9c0.8,0,1.6-0.1,2.4-0.1l0,1.9
		C1134.9-174.2,1134.1-174.2,1133.3-174.1z"/>
	<text transform="matrix(1 0 0 1 1091.2493 -93.2822)" class="st39 st41 st42">0</text>
	<text transform="matrix(1 0 0 1 1120.5364 -162.678)" class="st39 st41 st42">100</text>
	<text transform="matrix(1 0 0 1 1085.1582 -110.7706)" class="st39 st41 st42">20</text>
	<text transform="matrix(1 0 0 1 1086.3035 -128.4462)" class="st39 st41 st42">40</text>
	<text transform="matrix(1 0 0 1 1094.8357 -144.5481)" class="st39 st41 st42">60</text>
	<text transform="matrix(1 0 0 1 1107.1936 -156.5728)" class="st39 st41 st42">80</text>
	<text transform="matrix(1 0 0 1 1138.7114 -162.9871)" class="st39 st41 st42">120</text>
	<text transform="matrix(1 0 0 1 1154.8871 -154.4271)" class="st39 st41 st42">140</text>
	<text transform="matrix(1 0 0 1 1166.1967 -142.721)" class="st39 st41 st42">160</text>
	<text transform="matrix(1 0 0 1 1173.0576 -125.8458)" class="st39 st41 st42">180</text>
	<text transform="matrix(1 0 0 1 1174.0576 -108.8204)" class="st39 st41 st42">200</text>
	<text transform="matrix(1 0 0 1 1167.4387 -91.3499)" class="st39 st41 st42">220</text>
</g>
</svg>
