<?xml version="1.0" encoding="utf-8"?>
<!-- Generator: Adobe Illustrator 19.0.0, SVG Export Plug-In . SVG Version: 6.00 Build 0)  -->
<svg version="1.1" id="Layer_1" xmlns="http://www.w3.org/2000/svg" xmlns:xlink="http://www.w3.org/1999/xlink" x="0px" y="0px"
	 viewBox="0 0 100 300" style="enable-background:new 0 0 100 300;" xml:space="preserve">
<style type="text/css">
	.st0{fill:#FFFFFF;stroke:#8DC63F;stroke-width:3;stroke-miterlimit:10;}
	.st1{fill:#231F20;}
	.st2{fill:#8DC63F;}
</style>
<g id="XMLID_4_">
	<line id="XMLID_2_" class="st0" x1="30.2" y1="12.8" x2="74.6" y2="12.8"/>
	<g id="XMLID_3_">
		<path id="XMLID_40_" class="st1" d="M30.2,16.8c-2.2,0-4-1.8-4-4s1.8-4,4-4h44.4c2.2,0,4,1.8,4,4s-1.8,4-4,4H30.2z"/>
		<path id="XMLID_35_" class="st2" d="M74.6,10.3c1.4,0,2.5,1.1,2.5,2.5s-1.1,2.5-2.5,2.5H30.2c-1.4,0-2.5-1.1-2.5-2.5
			s1.1-2.5,2.5-2.5H74.6 M74.6,7.3H30.2c-3,0-5.5,2.5-5.5,5.5s2.5,5.5,5.5,5.5h44.4c3,0,5.5-2.5,5.5-5.5S77.7,7.3,74.6,7.3L74.6,7.3
			z"/>
	</g>
</g>
<g id="XMLID_1_">
	<line id="XMLID_6_" class="st0" x1="30.2" y1="53" x2="74.6" y2="53"/>
	<g id="XMLID_5_">
		<path id="XMLID_46_" class="st1" d="M30.2,57c-2.2,0-4-1.8-4-4s1.8-4,4-4h44.4c2.2,0,4,1.8,4,4s-1.8,4-4,4H30.2z"/>
		<path id="XMLID_41_" class="st2" d="M74.6,50.5c1.4,0,2.5,1.1,2.5,2.5s-1.1,2.5-2.5,2.5H30.2c-1.4,0-2.5-1.1-2.5-2.5
			s1.1-2.5,2.5-2.5H74.6 M74.6,47.5H30.2c-3,0-5.5,2.5-5.5,5.5s2.5,5.5,5.5,5.5h44.4c3,0,5.5-2.5,5.5-5.5S77.7,47.5,74.6,47.5
			L74.6,47.5z"/>
	</g>
</g>
<g id="XMLID_10_">
	<line id="XMLID_13_" class="st0" x1="30.2" y1="91.4" x2="74.6" y2="91.4"/>
	<g id="XMLID_11_">
		<path id="XMLID_51_" class="st1" d="M30.2,95.4c-2.2,0-4-1.8-4-4s1.8-4,4-4h44.4c2.2,0,4,1.8,4,4s-1.8,4-4,4H30.2z"/>
		<path id="XMLID_47_" class="st2" d="M74.6,88.9c1.4,0,2.5,1.1,2.5,2.5s-1.1,2.5-2.5,2.5H30.2c-1.4,0-2.5-1.1-2.5-2.5
			s1.1-2.5,2.5-2.5H74.6 M74.6,85.9H30.2c-3,0-5.5,2.5-5.5,5.5s2.5,5.5,5.5,5.5h44.4c3,0,5.5-2.5,5.5-5.5S77.7,85.9,74.6,85.9
			L74.6,85.9z"/>
	</g>
</g>
<g id="XMLID_7_">
	<line id="XMLID_9_" class="st0" x1="30.2" y1="131.7" x2="74.6" y2="131.7"/>
	<g id="XMLID_8_">
		<path id="XMLID_59_" class="st1" d="M30.2,135.7c-2.2,0-4-1.8-4-4s1.8-4,4-4h44.4c2.2,0,4,1.8,4,4s-1.8,4-4,4H30.2z"/>
		<path id="XMLID_52_" class="st2" d="M74.6,129.2c1.4,0,2.5,1.1,2.5,2.5s-1.1,2.5-2.5,2.5H30.2c-1.4,0-2.5-1.1-2.5-2.5
			s1.1-2.5,2.5-2.5H74.6 M74.6,126.2H30.2c-3,0-5.5,2.5-5.5,5.5s2.5,5.5,5.5,5.5h44.4c3,0,5.5-2.5,5.5-5.5S77.7,126.2,74.6,126.2
			L74.6,126.2z"/>
	</g>
</g>
<g id="XMLID_34_">
	<line id="XMLID_44_" class="st0" x1="30.2" y1="170" x2="74.6" y2="170"/>
	<g id="XMLID_39_">
		<path id="XMLID_75_" class="st1" d="M30.2,174c-2.2,0-4-1.8-4-4s1.8-4,4-4h44.4c2.2,0,4,1.8,4,4s-1.8,4-4,4H30.2z"/>
		<path id="XMLID_72_" class="st2" d="M74.6,167.5c1.4,0,2.5,1.1,2.5,2.5s-1.1,2.5-2.5,2.5H30.2c-1.4,0-2.5-1.1-2.5-2.5
			s1.1-2.5,2.5-2.5H74.6 M74.6,164.5H30.2c-3,0-5.5,2.5-5.5,5.5s2.5,5.5,5.5,5.5h44.4c3,0,5.5-2.5,5.5-5.5S77.7,164.5,74.6,164.5
			L74.6,164.5z"/>
	</g>
</g>
<g id="XMLID_29_">
	<line id="XMLID_33_" class="st0" x1="30.2" y1="210.3" x2="74.6" y2="210.3"/>
	<g id="XMLID_30_">
		<path id="XMLID_70_" class="st1" d="M30.2,214.3c-2.2,0-4-1.8-4-4s1.8-4,4-4h44.4c2.2,0,4,1.8,4,4s-1.8,4-4,4H30.2z"/>
		<path id="XMLID_67_" class="st2" d="M74.6,207.8c1.4,0,2.5,1.1,2.5,2.5s-1.1,2.5-2.5,2.5H30.2c-1.4,0-2.5-1.1-2.5-2.5
			s1.1-2.5,2.5-2.5H74.6 M74.6,204.8H30.2c-3,0-5.5,2.5-5.5,5.5s2.5,5.5,5.5,5.5h44.4c3,0,5.5-2.5,5.5-5.5S77.7,204.8,74.6,204.8
			L74.6,204.8z"/>
	</g>
</g>
<g id="XMLID_22_">
	<line id="XMLID_28_" class="st0" x1="30.2" y1="248.6" x2="74.6" y2="248.6"/>
	<g id="XMLID_23_">
		<path id="XMLID_65_" class="st1" d="M30.2,252.6c-2.2,0-4-1.8-4-4s1.8-4,4-4h44.4c2.2,0,4,1.8,4,4s-1.8,4-4,4H30.2z"/>
		<path id="XMLID_62_" class="st2" d="M74.6,246.1c1.4,0,2.5,1.1,2.5,2.5s-1.1,2.5-2.5,2.5H30.2c-1.4,0-2.5-1.1-2.5-2.5
			s1.1-2.5,2.5-2.5H74.6 M74.6,243.1H30.2c-3,0-5.5,2.5-5.5,5.5s2.5,5.5,5.5,5.5h44.4c3,0,5.5-2.5,5.5-5.5S77.7,243.1,74.6,243.1
			L74.6,243.1z"/>
	</g>
</g>
<g id="XMLID_14_">
	<line id="XMLID_21_" class="st0" x1="30.2" y1="288.9" x2="74.6" y2="288.9"/>
	<g id="XMLID_15_">
		<path id="XMLID_71_" class="st1" d="M30.2,292.9c-2.2,0-4-1.8-4-4s1.8-4,4-4h44.4c2.2,0,4,1.8,4,4s-1.8,4-4,4H30.2z"/>
		<path id="XMLID_60_" class="st2" d="M74.6,286.4c1.4,0,2.5,1.1,2.5,2.5s-1.1,2.5-2.5,2.5H30.2c-1.4,0-2.5-1.1-2.5-2.5
			s1.1-2.5,2.5-2.5H74.6 M74.6,283.4H30.2c-3,0-5.5,2.5-5.5,5.5s2.5,5.5,5.5,5.5h44.4c3,0,5.5-2.5,5.5-5.5S77.7,283.4,74.6,283.4
			L74.6,283.4z"/>
	</g>
</g>
</svg>
