<?xml version="1.0" encoding="utf-8"?>
<!-- Generator: Adobe Illustrator 19.0.0, SVG Export Plug-In . SVG Version: 6.00 Build 0)  -->
<svg version="1.1" id="Layer_1" xmlns="http://www.w3.org/2000/svg" xmlns:xlink="http://www.w3.org/1999/xlink" x="0px" y="0px"
	 viewBox="206 -206 512 512" style="enable-background:new 206 -206 512 512;" xml:space="preserve">
<style type="text/css">
	.st0{fill:#636262;}
	.st1{fill:#3F3D3D;}
	.st2{fill:#5B5A5A;}
	.st3{fill:#212121;}
	.st4{fill:#474747;}
	.st5{fill:none;}
	.st6{fill:#8CC63F;stroke:#000000;stroke-miterlimit:10;}
	.st7{fill:url(#SVGID_1_);}
	.st8{fill:url(#SVGID_2_);stroke:url(#SVGID_3_);stroke-width:7;stroke-miterlimit:10;}
	.st9{fill:none;stroke:#8CC63F;stroke-width:2;stroke-miterlimit:10;}
	.st10{fill:#8CC63F;}
	.st11{fill:url(#XMLID_7_);}
	.st12{fill:url(#SVGID_4_);stroke:url(#SVGID_5_);stroke-width:2;stroke-miterlimit:10;}
</style>
<g>
	<g>
		<path id="XMLID_12_" class="st0" d="M431.2,246.9c0,0,24.1-2,29.4-17.1c5.3-15.1-55.4-64-71.6-121.2s6.2-141.4,19.8-172.7
			c13.6-31.3,38.2-45.9,0-85.5c0,0,94.6-24.6,120.5-5.1c25.9,19.4-77.7,6.6-8.6,140.4c0,0,53.4,11.8,63.4,12.9s74.9,7,54.9-39.7
			c0,0,37.2-6.7,37.2,58s-24,91.4-24,91.4s5.6-26.6-4.1-33.1s-38.9-6.5-55-3.2c-16.2,3.2-70.2,38.9-70.2,38.9s-20.5,87.4,2.2,109
			s51.4-7.1,51.4-7.1S527.4,277.3,431.2,246.9z"/>
		<path id="XMLID_11_" class="st1" d="M431.2,246.9c0,0,35.7,2.2,41-19.7c3.8-15.6-52.4-64.6-68.6-121.8S407.4-30.2,421-61.5
			c13.6-31.3,38.2-51.4,0-91.1c0,0,67.9-21.5,93.8-2.1c25.9,19.4-74,6.2-5,140c0,0,63.2,23.1,73.2,24.2s83.6,6,55.8-50.7
			c0,0,37.2-6.7,37.2,58s-24,91.4-24,91.4s8.2-36.2-1.5-42.7s-41.3-6.3-57.5-3.1c-16.2,3.2-78.2,46-78.2,46s-21.1,94.2,1.5,115.8
			c22.6,21.6,60-11.6,60-11.6S527.4,277.3,431.2,246.9z"/>
	</g>
	<g>
		<path id="XMLID_14_" class="st2" d="M461.4-196.3c135.9,0,246.1,110.2,246.1,246.1S597.3,295.9,461.4,295.9
			S215.3,185.7,215.3,49.8S325.5-196.3,461.4-196.3z M262,49.8c0,110.1,89.3,199.4,199.4,199.4s199.4-89.3,199.4-199.4
			s-89.3-199.5-199.4-199.5S262-60.4,262,49.8z"/>
		<path id="XMLID_13_" class="st3" d="M461.4-184.8C591-184.8,696-79.8,696,49.8S591,284.4,461.4,284.4S226.8,179.3,226.8,49.8
			S331.8-184.8,461.4-184.8z M262.8,49.8c0,109.6,88.9,198.5,198.5,198.5s198.5-88.9,198.5-198.5S571-148.8,461.4-148.8
			S262.8-59.9,262.8,49.8z"/>
	</g>
</g>
<path id="XMLID_6_" class="st3" d="M367.9,57.9c1.1,41.2,29.6,110.9,51.1,115.5c0,0,52,0,78.4-20.5s61.1-69.7,96.4-71.2
	c23.4-1,19.7-83.3-0.9-91.8c0,0-23.7-0.5-42.6-9.2c-18.9-8.6-45.9-40.5-66.4-49.7s-57.7-23.7-81-8.6C403-77.6,365.8-19.9,367.9,57.9
	z"/>
<path id="XMLID_5_" class="st4" d="M367.8,61.9c1.9,35.6,22.6,94.3,42.8,100.8c0,0,49.5-1.7,72.3-19.4s54.1-50.7,72.5-64.6
	c0,0,32.7-43.6,10.8-65.9c-6.3-6.5-25.1-14.1-41.4-21.5c-16.3-7.4-35.9-31.7-53.6-39.7c-17.7-7.9-59.2-21.5-79.2-8.4
	C392.1-56.8,363.7-15.3,367.8,61.9z"/>
<g id="XMLID_1_">
	<path id="XMLID_3_" class="st5" d="M7,55l4.8,49.9L16.7,55c0.9-1.1,1.4-2.6,1.4-4.1c0-3.6-2.8-6.6-6.2-6.6s-6.2,2.9-6.2,6.6
		C5.7,52.4,6.2,53.9,7,55z"/>
	<path id="XMLID_2_" class="st6" d="M16.7,46.3L11.9-3.6L7,46.3c-0.9,1.1-1.4,2.6-1.4,4.1c0,3.6,2.8,6.6,6.2,6.6S18,54,18,50.4
		C18,48.9,17.5,47.4,16.7,46.3z"/>
</g>
<g>
	<g>
		
			<linearGradient id="SVGID_1_" gradientUnits="userSpaceOnUse" x1="529.2376" y1="50" x2="396.7181" y2="50" gradientTransform="matrix(-6.975647e-02 -0.9976 0.9976 -6.975647e-02 444.0175 513.5601)">
			<stop  offset="0" style="stop-color:#B3B3B3"/>
			<stop  offset="1" style="stop-color:#2D292A"/>
			<stop  offset="1" style="stop-color:#000000"/>
		</linearGradient>
		<circle class="st7" cx="461.6" cy="48.2" r="66.3"/>
		
			<radialGradient id="SVGID_2_" cx="462.9779" cy="50" r="63.4281" gradientTransform="matrix(-6.975647e-02 -0.9976 0.9976 -6.975647e-02 444.0175 513.5601)" gradientUnits="userSpaceOnUse">
			<stop  offset="0" style="stop-color:#333333"/>
			<stop  offset="0.3438" style="stop-color:#2E2B2C"/>
			<stop  offset="1" style="stop-color:#2D292A"/>
			<stop  offset="1" style="stop-color:#000000"/>
		</radialGradient>
		
			<linearGradient id="SVGID_3_" gradientUnits="userSpaceOnUse" x1="396.0498" y1="50" x2="529.9059" y2="50" gradientTransform="matrix(-6.975647e-02 -0.9976 0.9976 -6.975647e-02 444.0175 513.5601)">
			<stop  offset="0" style="stop-color:#B3B3B3"/>
			<stop  offset="1" style="stop-color:#2D292A"/>
			<stop  offset="1" style="stop-color:#000000"/>
		</linearGradient>
		<circle class="st8" cx="461.6" cy="48.2" r="63.4"/>
		<circle class="st9" cx="461.6" cy="48.2" r="60"/>
	</g>
	<polygon class="st10" points="401.7,43 418.6,51.2 403,61.8 	"/>
</g>
<g>
	<g id="XMLID_8_">
		
			<linearGradient id="XMLID_7_" gradientUnits="userSpaceOnUse" x1="-1781.0388" y1="-246.8824" x2="-1781.0388" y2="-307.1328" gradientTransform="matrix(-1 0 0 -1 -1700.3943 -299.0773)">
			<stop  offset="0" style="stop-color:#333333;stop-opacity:0"/>
			<stop  offset="0.1197" style="stop-color:#5D482F;stop-opacity:0.1197"/>
			<stop  offset="0.2725" style="stop-color:#8C5E2A;stop-opacity:0.2725"/>
			<stop  offset="0.4257" style="stop-color:#B27125;stop-opacity:0.4257"/>
			<stop  offset="0.5763" style="stop-color:#D08022;stop-opacity:0.5763"/>
			<stop  offset="0.7238" style="stop-color:#E68B20;stop-opacity:0.7238"/>
			<stop  offset="0.8668" style="stop-color:#F3911E;stop-opacity:0.8668"/>
			<stop  offset="1" style="stop-color:#F7931E"/>
		</linearGradient>
		<polygon id="XMLID_10_" class="st11" points="95.6,-52.2 80.6,8.1 65.7,-52.2 		"/>
		<polygon id="XMLID_9_" class="st5" points="65.7,68.3 80.6,8.1 95.6,68.3 		"/>
	</g>
	<radialGradient id="SVGID_4_" cx="80.5993" cy="8.0555" r="7.5281" gradientUnits="userSpaceOnUse">
		<stop  offset="0" style="stop-color:#333333"/>
		<stop  offset="0.3438" style="stop-color:#2E2B2C"/>
		<stop  offset="1" style="stop-color:#2D292A"/>
		<stop  offset="1" style="stop-color:#000000"/>
	</radialGradient>
	<linearGradient id="SVGID_5_" gradientUnits="userSpaceOnUse" x1="72.0712" y1="8.0555" x2="89.1274" y2="8.0555">
		<stop  offset="0" style="stop-color:#B3B3B3"/>
		<stop  offset="0.1285" style="stop-color:#ACACAC"/>
		<stop  offset="0.3121" style="stop-color:#999999"/>
		<stop  offset="0.5289" style="stop-color:#7A7A7A"/>
		<stop  offset="0.769" style="stop-color:#505050"/>
		<stop  offset="1" style="stop-color:#202020"/>
	</linearGradient>
	<circle class="st12" cx="80.6" cy="8.1" r="7.5"/>
</g>
</svg>
